<svg xmlns="http://www.w3.org/2000/svg" version="1.1" xmlns:xlink="http://www.w3.org/1999/xlink" xmlns:svgjs="http://svgjs.dev/svgjs" width="2000" height="353" viewBox="0 0 2000 353"><g transform="matrix(1,0,0,1,-1.2133264085866813,-2.4804096231830783)"><svg viewBox="0 0 396 70" data-background-color="#ffffff" preserveAspectRatio="xMidYMid meet" height="353" width="2000" xmlns="http://www.w3.org/2000/svg" xmlns:xlink="http://www.w3.org/1999/xlink"><g id="tight-bounds" transform="matrix(1,0,0,1,0.24023862890015835,0.49186593094282216)"><svg viewBox="0 0 395.52 69.0162865207177" height="69.0162865207177" width="395.52"><g><svg viewBox="0 0 550.1120249159937 95.9918313362015" height="69.0162865207177" width="395.52"><g><rect width="4.064797793903443" height="83.35036006037755" x="139.88639520087713" y="6.320735637911973" fill="#ffffff" opacity="1" stroke-width="0" stroke="transparent" fill-opacity="1" class="rect-yte-0" data-fill-palette-color="primary" rx="1%" id="yte-0" data-palette-color="#f58220"></rect></g><g transform="matrix(1,0,0,1,154.59202491599376,13.266598976276768)"><svg viewBox="0 0 395.52 69.45863338364796" height="69.45863338364796" width="395.52"><g id="textblocktransform"><svg viewBox="0 0 395.52 69.45863338364796" height="69.45863338364796" width="395.52" id="textblock"><g><svg viewBox="0 0 395.52 45.073755575379124" height="45.073755575379124" width="395.52"><g transform="matrix(1,0,0,1,0,0)"><svg width="395.52" viewBox="4.55 -39.6 448.36 51.1" height="45.073755575379124" data-palette-color="#f58220"><path d="M11.9 0L4.55 0 4.55-35 11.4-35 24.15-14.25 19.65-14.3 32.55-35 39.1-35 39.1 0 31.75 0 31.75-12Q31.75-16.5 31.98-20.1 32.2-23.7 32.75-27.25L32.75-27.25 33.65-24.9 23.4-9 20.1-9 10.05-24.8 10.9-27.25Q11.45-23.9 11.68-20.38 11.9-16.85 11.9-12L11.9-12 11.9 0ZM57.1 0.5L57.1 0.5Q53.8 0.5 51.15-1.3 48.5-3.1 46.95-6.2 45.4-9.3 45.4-13.3L45.4-13.3Q45.4-17.3 46.97-20.4 48.55-23.5 51.25-25.25 53.95-27 57.4-27L57.4-27Q59.35-27 60.97-26.43 62.6-25.85 63.82-24.85 65.05-23.85 65.9-22.55 66.75-21.25 67.1-19.75L67.1-19.75 65.6-20 65.6-26.45 72.65-26.45 72.65 0 65.5 0 65.5-6.35 67.1-6.5Q66.7-5.1 65.8-3.85 64.9-2.6 63.57-1.63 62.25-0.65 60.6-0.08 58.95 0.5 57.1 0.5ZM59.05-5.65L59.05-5.65Q61.05-5.65 62.55-6.6 64.05-7.55 64.87-9.28 65.7-11 65.7-13.3L65.7-13.3Q65.7-15.55 64.87-17.25 64.05-18.95 62.55-19.93 61.05-20.9 59.05-20.9L59.05-20.9Q57.1-20.9 55.62-19.93 54.15-18.95 53.3-17.25 52.45-15.55 52.45-13.3L52.45-13.3Q52.45-11 53.3-9.28 54.15-7.55 55.62-6.6 57.1-5.65 59.05-5.65ZM87.45 0L80.35 0 80.35-26.45 87.45-26.45 87.45 0ZM83.85-31.85L83.85-31.85Q81.8-31.85 80.65-32.88 79.5-33.9 79.5-35.75L79.5-35.75Q79.5-37.45 80.67-38.53 81.85-39.6 83.85-39.6L83.85-39.6Q85.9-39.6 87.05-38.58 88.2-37.55 88.2-35.75L88.2-35.75Q88.2-34.05 87.02-32.95 85.85-31.85 83.85-31.85ZM95.04 0L95.04 0 95.04-26.45 101.84-26.45 102.04-21.05 100.64-20.45Q101.19-22.25 102.62-23.73 104.04-25.2 106.04-26.1 108.04-27 110.24-27L110.24-27Q113.24-27 115.27-25.8 117.29-24.6 118.32-22.18 119.34-19.75 119.34-16.2L119.34-16.2 119.34 0 112.24 0 112.24-15.65Q112.24-17.45 111.74-18.65 111.24-19.85 110.22-20.4 109.19-20.95 107.69-20.9L107.69-20.9Q106.49-20.9 105.47-20.53 104.44-20.15 103.72-19.45 102.99-18.75 102.57-17.85 102.14-16.95 102.14-15.9L102.14-15.9 102.14 0 98.64 0Q97.49 0 96.59 0 95.69 0 95.04 0ZM138.49 0.5L138.49 0.5Q135.24 0.5 132.57-0.3 129.89-1.1 127.82-2.65 125.74-4.2 124.09-6.4L124.09-6.4 128.79-11.75Q131.24-8.35 133.67-7.13 136.09-5.9 138.94-5.9L138.94-5.9Q140.49-5.9 141.72-6.35 142.94-6.8 143.64-7.58 144.34-8.35 144.34-9.45L144.34-9.45Q144.34-10.25 143.99-10.93 143.64-11.6 142.99-12.13 142.34-12.65 141.44-13.08 140.54-13.5 139.44-13.83 138.34-14.15 137.04-14.35L137.04-14.35Q134.24-15 132.14-15.93 130.04-16.85 128.64-18.23 127.24-19.6 126.57-21.35 125.89-23.1 125.89-25.3L125.89-25.3Q125.89-27.55 126.89-29.48 127.89-31.4 129.67-32.8 131.44-34.2 133.77-34.95 136.09-35.7 138.69-35.7L138.69-35.7Q141.89-35.7 144.29-35 146.69-34.3 148.47-32.93 150.24-31.55 151.44-29.6L151.44-29.6 146.69-25Q145.64-26.4 144.42-27.35 143.19-28.3 141.77-28.78 140.34-29.25 138.84-29.25L138.84-29.25Q137.19-29.25 135.99-28.83 134.79-28.4 134.12-27.58 133.44-26.75 133.44-25.65L133.44-25.65Q133.44-24.75 133.89-24.05 134.34-23.35 135.19-22.83 136.04-22.3 137.24-21.9 138.44-21.5 139.89-21.2L139.89-21.2Q142.64-20.65 144.84-19.75 147.04-18.85 148.62-17.57 150.19-16.3 151.04-14.58 151.89-12.85 151.89-10.7L151.89-10.7Q151.89-7.15 150.19-4.65 148.49-2.15 145.49-0.83 142.49 0.5 138.49 0.5ZM167.34 0L160.24 0 160.24-33.15 167.34-33.15 167.34 0ZM172.79-20.1L155.29-20.1 155.29-26.45 172.79-26.45 172.79-20.1ZM184.54 0L177.39 0 177.39-26.45 184.24-26.45 184.49-17.95 183.29-19.7Q183.89-21.75 185.24-23.43 186.59-25.1 188.41-26.05 190.24-27 192.24-27L192.24-27Q193.09-27 193.89-26.85 194.69-26.7 195.24-26.5L195.24-26.5 193.34-18.7Q192.79-19 191.91-19.23 191.04-19.45 190.14-19.45L190.14-19.45Q188.94-19.45 187.91-19.03 186.89-18.6 186.14-17.82 185.39-17.05 184.96-16 184.54-14.95 184.54-13.7L184.54-13.7 184.54 0ZM210.73 0.5L210.73 0.5Q206.43 0.5 203.21-1.25 199.98-3 198.21-6.05 196.43-9.1 196.43-13.05L196.43-13.05Q196.43-16.15 197.43-18.7 198.43-21.25 200.23-23.13 202.03-25 204.51-26.03 206.98-27.05 209.88-27.05L209.88-27.05Q212.58-27.05 214.88-26.05 217.18-25.05 218.86-23.28 220.53-21.5 221.43-19.07 222.33-16.65 222.23-13.85L222.23-13.85 222.18-11.65 200.93-11.65 199.78-16 216.33-16 215.53-15.1 215.53-16.2Q215.43-17.55 214.66-18.63 213.88-19.7 212.68-20.33 211.48-20.95 209.98-20.95L209.98-20.95Q207.78-20.95 206.26-20.1 204.73-19.25 203.93-17.6 203.13-15.95 203.13-13.6L203.13-13.6Q203.13-11.2 204.16-9.45 205.18-7.7 207.06-6.73 208.93-5.75 211.48-5.75L211.48-5.75Q213.23-5.75 214.68-6.3 216.13-6.85 217.78-8.2L217.78-8.2 221.18-3.45Q219.73-2.15 217.98-1.28 216.23-0.4 214.38 0.05 212.53 0.5 210.73 0.5ZM240.03 0.5L240.03 0.5Q235.73 0.5 232.51-1.25 229.28-3 227.51-6.05 225.73-9.1 225.73-13.05L225.73-13.05Q225.73-16.15 226.73-18.7 227.73-21.25 229.53-23.13 231.33-25 233.81-26.03 236.28-27.05 239.18-27.05L239.18-27.05Q241.88-27.05 244.18-26.05 246.48-25.05 248.16-23.28 249.83-21.5 250.73-19.07 251.63-16.65 251.53-13.85L251.53-13.85 251.48-11.65 230.23-11.65 229.08-16 245.63-16 244.83-15.1 244.83-16.2Q244.73-17.55 243.96-18.63 243.18-19.7 241.98-20.33 240.78-20.95 239.28-20.95L239.28-20.95Q237.08-20.95 235.56-20.1 234.03-19.25 233.23-17.6 232.43-15.95 232.43-13.6L232.43-13.6Q232.43-11.2 233.46-9.45 234.48-7.7 236.36-6.73 238.23-5.75 240.78-5.75L240.78-5.75Q242.53-5.75 243.98-6.3 245.43-6.85 247.08-8.2L247.08-8.2 250.48-3.45Q249.03-2.15 247.28-1.28 245.53-0.4 243.68 0.05 241.83 0.5 240.03 0.5ZM266.43 0L259.33 0 259.33-33.15 266.43-33.15 266.43 0ZM271.88-20.1L254.38-20.1 254.38-26.45 271.88-26.45 271.88-20.1ZM307.17 0L292.82 0 292.82-35 307.17-35Q311.02-35 314.15-33.73 317.27-32.45 319.55-30.13 321.82-27.8 323.02-24.6 324.22-21.4 324.22-17.5L324.22-17.5Q324.22-13.65 323.02-10.43 321.82-7.2 319.57-4.88 317.32-2.55 314.17-1.28 311.02 0 307.17 0L307.17 0ZM300.32-29.45L300.32-5.45 299.52-6.75 306.92-6.75Q309.17-6.75 310.97-7.53 312.77-8.3 314.05-9.68 315.32-11.05 315.97-13.05 316.62-15.05 316.62-17.5L316.62-17.5Q316.62-19.95 315.97-21.93 315.32-23.9 314.05-25.3 312.77-26.7 310.97-27.48 309.17-28.25 306.92-28.25L306.92-28.25 299.37-28.25 300.32-29.45ZM337.72 0L330.62 0 330.62-26.45 337.72-26.45 337.72 0ZM334.12-31.85L334.12-31.85Q332.07-31.85 330.92-32.88 329.77-33.9 329.77-35.75L329.77-35.75Q329.77-37.45 330.95-38.53 332.12-39.6 334.12-39.6L334.12-39.6Q336.17-39.6 337.32-38.58 338.47-37.55 338.47-35.75L338.47-35.75Q338.47-34.05 337.3-32.95 336.12-31.85 334.12-31.85ZM357.37 11.5L357.37 11.5Q354.22 11.5 351.17 10.58 348.12 9.65 346.17 8.15L346.17 8.15 348.72 3.1Q349.72 3.8 351.02 4.35 352.32 4.9 353.74 5.2 355.17 5.5 356.67 5.5L356.67 5.5Q359.27 5.5 360.94 4.7 362.62 3.9 363.47 2.3 364.32 0.7 364.32-1.7L364.32-1.7 364.32-6.3 365.52-6.05Q365.22-4.4 363.84-3.03 362.47-1.65 360.44-0.83 358.42 0 356.22 0L356.22 0Q352.57 0 349.72-1.7 346.87-3.4 345.22-6.4 343.57-9.4 343.57-13.35L343.57-13.35Q343.57-17.3 345.19-20.38 346.82-23.45 349.64-25.23 352.47-27 356.07-27L356.07-27Q357.57-27 358.94-26.65 360.32-26.3 361.49-25.68 362.67-25.05 363.59-24.28 364.52-23.5 365.12-22.6 365.72-21.7 365.87-20.8L365.87-20.8 364.42-20.4 364.62-26.45 371.42-26.45 371.42-2Q371.42 1.25 370.47 3.75 369.52 6.25 367.69 7.98 365.87 9.7 363.24 10.6 360.62 11.5 357.37 11.5ZM357.57-5.7L357.57-5.7Q359.67-5.7 361.24-6.65 362.82-7.6 363.67-9.3 364.52-11 364.52-13.3L364.52-13.3Q364.52-15.55 363.67-17.28 362.82-19 361.24-19.95 359.67-20.9 357.57-20.9L357.57-20.9Q355.52-20.9 353.97-19.93 352.42-18.95 351.54-17.23 350.67-15.5 350.67-13.3L350.67-13.3Q350.67-11.05 351.54-9.33 352.42-7.6 353.97-6.65 355.52-5.7 357.57-5.7ZM386.17 0L379.07 0 379.07-26.45 386.17-26.45 386.17 0ZM382.57-31.85L382.57-31.85Q380.52-31.85 379.37-32.88 378.22-33.9 378.22-35.75L378.22-35.75Q378.22-37.45 379.39-38.53 380.57-39.6 382.57-39.6L382.57-39.6Q384.62-39.6 385.77-38.58 386.92-37.55 386.92-35.75L386.92-35.75Q386.92-34.05 385.74-32.95 384.57-31.85 382.57-31.85ZM403.41 0L396.31 0 396.31-33.15 403.41-33.15 403.41 0ZM408.86-20.1L391.36-20.1 391.36-26.45 408.86-26.45 408.86-20.1ZM423.11 0.5L423.11 0.5Q419.81 0.5 417.16-1.3 414.51-3.1 412.96-6.2 411.41-9.3 411.41-13.3L411.41-13.3Q411.41-17.3 412.99-20.4 414.56-23.5 417.26-25.25 419.96-27 423.41-27L423.41-27Q425.36-27 426.99-26.43 428.61-25.85 429.84-24.85 431.06-23.85 431.91-22.55 432.76-21.25 433.11-19.75L433.11-19.75 431.61-20 431.61-26.45 438.66-26.45 438.66 0 431.51 0 431.51-6.35 433.11-6.5Q432.71-5.1 431.81-3.85 430.91-2.6 429.59-1.63 428.26-0.65 426.61-0.08 424.96 0.5 423.11 0.5ZM425.06-5.65L425.06-5.65Q427.06-5.65 428.56-6.6 430.06-7.55 430.89-9.28 431.71-11 431.71-13.3L431.71-13.3Q431.71-15.55 430.89-17.25 430.06-18.95 428.56-19.93 427.06-20.9 425.06-20.9L425.06-20.9Q423.11-20.9 421.64-19.93 420.16-18.95 419.31-17.25 418.46-15.55 418.46-13.3L418.46-13.3Q418.46-11 419.31-9.28 420.16-7.55 421.64-6.6 423.11-5.65 425.06-5.65ZM452.91 0L445.81 0 445.81-37 452.91-37 452.91 0Z" opacity="1" transform="matrix(1,0,0,1,0,0)" fill="#ffffff" class="wordmark-text-0" data-fill-palette-color="primary" id="text-0"></path></svg></g></svg></g><g transform="matrix(1,0,0,1,0,55.71458749659233)"><svg viewBox="0 0 375.7439999999999 13.744045887055629" height="13.744045887055629" width="375.7439999999999"><g transform="matrix(1,0,0,1,0,0)"><svg width="375.7439999999999" viewBox="2.45 -38.85 1376.4022727272725 50.35" height="13.744045887055629" data-palette-color="#2a9d8f"><path d="M23.9 0L18.5 0 18.5-16.45 19.2-13.2 2.45-35 9.5-35 21.9-18.3 20.7-18.35 32.45-35 38.95-35 23.45-13.7 23.9-16.85 23.9 0ZM57.55 0.5L57.55 0.5Q53 0.5 49.47-1.25 45.95-3 43.92-6.1 41.9-9.2 41.9-13.15L41.9-13.15Q41.9-17.15 43.92-20.23 45.95-23.3 49.47-25.05 53-26.8 57.55-26.8L57.55-26.8Q62.1-26.8 65.6-25.05 69.1-23.3 71.12-20.23 73.15-17.15 73.15-13.15L73.15-13.15Q73.15-9.2 71.12-6.1 69.1-3 65.6-1.25 62.1 0.5 57.55 0.5ZM57.55-4.2L57.55-4.2Q60.5-4.2 62.87-5.35 65.25-6.5 66.62-8.53 68-10.55 67.9-13.15L67.9-13.15Q68-15.8 66.62-17.8 65.25-19.8 62.87-20.95 60.5-22.1 57.55-22.1L57.55-22.1Q54.6-22.1 52.22-20.95 49.85-19.8 48.47-17.78 47.1-15.75 47.15-13.15L47.15-13.15Q47.1-10.55 48.47-8.53 49.85-6.5 52.22-5.35 54.6-4.2 57.55-4.2ZM95.45 0.5L95.45 0.5Q92.25 0.5 89.87-0.98 87.5-2.45 86.17-5.2 84.85-7.95 84.85-11.75L84.85-11.75 84.85-26.25 90-26.25 90-13.4Q90-10.5 90.82-8.47 91.65-6.45 93.32-5.4 95-4.35 97.55-4.35L97.55-4.35Q99.3-4.35 100.85-4.93 102.4-5.5 103.57-6.55 104.75-7.6 105.42-9.1 106.1-10.6 106.1-12.4L106.1-12.4 106.1-26.25 111.25-26.25 111.25 0 106.1 0 106.1-5.5 107-6.1Q106.35-4.45 104.75-2.93 103.15-1.4 100.77-0.45 98.4 0.5 95.45 0.5ZM131.39 0L126.19 0 126.19-26.25 131.39-26.25 131.39-17.25 130.34-18.3Q130.99-20.65 132.62-22.58 134.24-24.5 136.37-25.65 138.49-26.8 140.79-26.8L140.79-26.8Q142.19-26.8 143.52-26.5 144.84-26.2 145.59-25.75L145.59-25.75 144.24-20.3Q143.34-20.8 142.12-21.08 140.89-21.35 139.79-21.35L139.79-21.35Q137.94-21.35 136.42-20.7 134.89-20.05 133.77-18.95 132.64-17.85 132.02-16.5 131.39-15.15 131.39-13.65L131.39-13.65 131.39 0ZM201.89 0L176.19 0 176.19-35 181.59-35 181.59-5.2 201.89-5.2 201.89 0ZM226.94 0.5L226.94 0.5Q222.39 0.5 218.86-1.25 215.34-3 213.31-6.1 211.29-9.2 211.29-13.15L211.29-13.15Q211.29-17.15 213.31-20.23 215.34-23.3 218.86-25.05 222.39-26.8 226.94-26.8L226.94-26.8Q231.49-26.8 234.99-25.05 238.49-23.3 240.51-20.23 242.54-17.15 242.54-13.15L242.54-13.15Q242.54-9.2 240.51-6.1 238.49-3 234.99-1.25 231.49 0.5 226.94 0.5ZM226.94-4.2L226.94-4.2Q229.89-4.2 232.26-5.35 234.64-6.5 236.01-8.53 237.39-10.55 237.29-13.15L237.29-13.15Q237.39-15.8 236.01-17.8 234.64-19.8 232.26-20.95 229.89-22.1 226.94-22.1L226.94-22.1Q223.99-22.1 221.61-20.95 219.24-19.8 217.86-17.78 216.49-15.75 216.54-13.15L216.54-13.15Q216.49-10.55 217.86-8.53 219.24-6.5 221.61-5.35 223.99-4.2 226.94-4.2ZM266.28 0.5L266.28 0.5Q262.08 0.5 258.76-1.3 255.43-3.1 253.48-6.2 251.53-9.3 251.53-13.15L251.53-13.15Q251.53-17.05 253.48-20.13 255.43-23.2 258.76-25 262.08-26.8 266.28-26.8L266.28-26.8Q270.38-26.8 273.86-25.43 277.33-24.05 279.23-21.6L279.23-21.6 276.38-17.7Q275.28-18.95 273.61-19.95 271.93-20.95 270.11-21.55 268.28-22.15 266.48-22.15L266.48-22.15Q263.63-22.15 261.43-20.98 259.23-19.8 257.98-17.78 256.73-15.75 256.73-13.15L256.73-13.15Q256.73-10.55 258.06-8.53 259.38-6.5 261.61-5.33 263.83-4.15 266.53-4.15L266.53-4.15Q268.63-4.15 270.41-4.67 272.18-5.2 273.68-6.08 275.18-6.95 276.43-7.95L276.43-7.95 279.23-4.15Q276.98-2.25 273.63-0.88 270.28 0.5 266.28 0.5ZM301.53 0.5L301.53 0.5Q297.48 0.5 294.33-1.28 291.18-3.05 289.41-6.15 287.63-9.25 287.63-13.15L287.63-13.15Q287.63-17.15 289.48-20.23 291.33-23.3 294.56-25.05 297.78-26.8 301.93-26.8L301.93-26.8Q304.43-26.8 306.58-26.15 308.73-25.5 310.33-24.43 311.93-23.35 312.88-22.03 313.83-20.7 313.88-19.35L313.88-19.35 312.53-19.45 312.53-26.25 317.73-26.25 317.73 0 312.53 0 312.53-6.8 313.63-6.75Q313.53-5.5 312.51-4.23 311.48-2.95 309.81-1.88 308.13-0.8 306.01-0.15 303.88 0.5 301.53 0.5ZM302.78-4.25L302.78-4.25Q305.73-4.25 307.98-5.43 310.23-6.6 311.48-8.63 312.73-10.65 312.73-13.15L312.73-13.15Q312.73-15.7 311.48-17.7 310.23-19.7 307.98-20.85 305.73-22 302.78-22L302.78-22Q299.88-22 297.66-20.85 295.43-19.7 294.16-17.7 292.88-15.7 292.88-13.15L292.88-13.15Q292.88-10.65 294.16-8.63 295.43-6.6 297.66-5.43 299.88-4.25 302.78-4.25ZM337.58 0L332.43 0 332.43-37 337.58-37 337.58 0ZM390.12 0L372.07 0 372.07-35 389.17-35Q393.12-35 395.8-33.98 398.47-32.95 399.82-31 401.17-29.05 401.17-26.2L401.17-26.2Q401.17-23.4 399.45-21.4 397.72-19.4 394.47-18.55L394.47-18.55 394.67-19.55Q396.97-19.05 398.87-17.88 400.77-16.7 401.9-14.8 403.02-12.9 403.02-10.3L403.02-10.3Q403.02-7.5 402-5.53 400.97-3.55 399.17-2.35 397.37-1.15 395.05-0.58 392.72 0 390.12 0L390.12 0ZM377.47-15.45L377.47-5.2 390.12-5.2Q392.37-5.2 394.02-5.78 395.67-6.35 396.6-7.53 397.52-8.7 397.52-10.4L397.52-10.4Q397.52-12.2 396.42-13.3 395.32-14.4 393.57-14.93 391.82-15.45 389.87-15.45L389.87-15.45 377.47-15.45ZM377.47-29.8L377.47-20.65 389.62-20.65Q391.27-20.65 392.67-21.23 394.07-21.8 394.87-22.85 395.67-23.9 395.67-25.3L395.67-25.3Q395.67-27.6 393.82-28.7 391.97-29.8 389.02-29.8L389.02-29.8 377.47-29.8ZM425.47 0.5L425.47 0.5Q422.27 0.5 419.9-0.98 417.52-2.45 416.2-5.2 414.87-7.95 414.87-11.75L414.87-11.75 414.87-26.25 420.02-26.25 420.02-13.4Q420.02-10.5 420.85-8.47 421.67-6.45 423.35-5.4 425.02-4.35 427.57-4.35L427.57-4.35Q429.32-4.35 430.87-4.93 432.42-5.5 433.6-6.55 434.77-7.6 435.45-9.1 436.12-10.6 436.12-12.4L436.12-12.4 436.12-26.25 441.27-26.25 441.27 0 436.12 0 436.12-5.5 437.02-6.1Q436.37-4.45 434.77-2.93 433.17-1.4 430.8-0.45 428.42 0.5 425.47 0.5ZM465.62 0.5L465.62 0.5Q461.57 0.5 458.24-0.65 454.92-1.8 452.72-4.35L452.72-4.35 456.22-7.45Q457.97-5.65 460.29-4.73 462.62-3.8 465.47-3.8L465.47-3.8Q466.57-3.8 467.72-3.95 468.87-4.1 469.84-4.5 470.82-4.9 471.39-5.55 471.97-6.2 471.97-7.1L471.97-7.1Q471.97-8.6 469.97-9.4L469.97-9.4Q468.97-9.75 467.57-10.13 466.17-10.5 464.37-10.85L464.37-10.85Q461.37-11.5 459.12-12.25 456.87-13 455.47-14.2L455.47-14.2Q454.42-15.15 453.87-16.38 453.32-17.6 453.32-19.2L453.32-19.2Q453.32-20.95 454.22-22.33 455.12-23.7 456.69-24.73 458.27-25.75 460.37-26.28 462.47-26.8 464.92-26.8L464.92-26.8Q467.07-26.8 469.29-26.35 471.52-25.9 473.52-24.95 475.52-24 476.87-22.6L476.87-22.6 474.07-19.2Q472.87-20.15 471.32-20.93 469.77-21.7 468.14-22.13 466.52-22.55 465.07-22.55L465.07-22.55Q463.87-22.55 462.72-22.4 461.57-22.25 460.59-21.88 459.62-21.5 459.04-20.88 458.47-20.25 458.47-19.4L458.47-19.4Q458.52-18.8 458.84-18.28 459.17-17.75 459.77-17.35L459.77-17.35Q460.67-16.75 462.29-16.28 463.92-15.8 466.02-15.4L466.02-15.4Q468.67-14.9 470.87-14.2 473.07-13.5 474.52-12.45L474.52-12.45Q475.77-11.6 476.39-10.43 477.02-9.25 477.02-7.7L477.02-7.7Q477.02-5.15 475.49-3.3 473.97-1.45 471.37-0.48 468.77 0.5 465.62 0.5ZM494.57 0L489.42 0 489.42-26.25 494.57-26.25 494.57 0ZM491.92-32.35L491.92-32.35Q490.27-32.35 489.37-33.2 488.47-34.05 488.47-35.6L488.47-35.6Q488.47-37.05 489.39-37.95 490.32-38.85 491.92-38.85L491.92-38.85Q493.57-38.85 494.47-38 495.37-37.15 495.37-35.6L495.37-35.6Q495.37-34.15 494.44-33.25 493.52-32.35 491.92-32.35ZM510.26 0L510.26 0 510.26-26.25 515.41-26.25 515.41-19.75 513.96-19.4Q514.81-21.25 516.46-22.93 518.11-24.6 520.41-25.7 522.71-26.8 525.41-26.8L525.41-26.8Q529.06-26.8 531.49-25.43 533.91-24.05 535.14-21.55 536.36-19.05 536.36-15.7L536.36-15.7 536.36 0 531.21 0 531.21-15.1Q531.21-17.3 530.29-18.88 529.36-20.45 527.74-21.28 526.11-22.1 523.96-22.05L523.96-22.05Q522.11-22.05 520.54-21.4 518.96-20.75 517.81-19.7 516.66-18.65 516.04-17.38 515.41-16.1 515.41-14.8L515.41-14.8 515.41 0 512.86 0Q511.86 0 511.21 0 510.56 0 510.26 0ZM564.36 0.5L564.36 0.5Q559.66 0.5 556.01-1.23 552.36-2.95 550.31-5.98 548.26-9 548.26-12.85L548.26-12.85Q548.26-16.05 549.46-18.63 550.66-21.2 552.81-23.03 554.96-24.85 557.81-25.85 560.66-26.85 563.91-26.85L563.91-26.85Q566.86-26.85 569.46-25.9 572.06-24.95 574.01-23.25 575.96-21.55 577.01-19.23 578.06-16.9 578.01-14.1L578.01-14.1 577.96-11.6 552.61-11.6 551.46-15.7 573.51-15.7 572.76-15.15 572.76-16.35Q572.56-18.05 571.26-19.35 569.96-20.65 568.03-21.38 566.11-22.1 563.91-22.1L563.91-22.1Q560.81-22.1 558.41-21.18 556.01-20.25 554.68-18.28 553.36-16.3 553.36-13.2L553.36-13.2Q553.36-10.5 554.84-8.47 556.31-6.45 558.99-5.35 561.66-4.25 565.11-4.25L565.11-4.25Q568.26-4.25 570.49-5.13 572.71-6 574.46-7.3L574.46-7.3 576.86-3.5Q575.51-2.4 573.49-1.5 571.46-0.6 569.09-0.05 566.71 0.5 564.36 0.5ZM600.11 0.5L600.11 0.5Q596.06 0.5 592.73-0.65 589.41-1.8 587.21-4.35L587.21-4.35 590.71-7.45Q592.46-5.65 594.78-4.73 597.11-3.8 599.96-3.8L599.96-3.8Q601.06-3.8 602.21-3.95 603.36-4.1 604.33-4.5 605.31-4.9 605.88-5.55 606.46-6.2 606.46-7.1L606.46-7.1Q606.46-8.6 604.46-9.4L604.46-9.4Q603.46-9.75 602.06-10.13 600.66-10.5 598.86-10.85L598.86-10.85Q595.86-11.5 593.61-12.25 591.36-13 589.96-14.2L589.96-14.2Q588.91-15.15 588.36-16.38 587.81-17.6 587.81-19.2L587.81-19.2Q587.81-20.95 588.71-22.33 589.61-23.7 591.18-24.73 592.76-25.75 594.86-26.28 596.96-26.8 599.41-26.8L599.41-26.8Q601.56-26.8 603.78-26.35 606.01-25.9 608.01-24.95 610.01-24 611.36-22.6L611.36-22.6 608.56-19.2Q607.36-20.15 605.81-20.93 604.26-21.7 602.63-22.13 601.01-22.55 599.56-22.55L599.56-22.55Q598.36-22.55 597.21-22.4 596.06-22.25 595.08-21.88 594.11-21.5 593.53-20.88 592.96-20.25 592.96-19.4L592.96-19.4Q593.01-18.8 593.33-18.28 593.66-17.75 594.26-17.35L594.26-17.35Q595.16-16.75 596.78-16.28 598.41-15.8 600.51-15.4L600.51-15.4Q603.16-14.9 605.36-14.2 607.56-13.5 609.01-12.45L609.01-12.45Q610.26-11.6 610.88-10.43 611.51-9.25 611.51-7.7L611.51-7.7Q611.51-5.15 609.98-3.3 608.46-1.45 605.86-0.48 603.26 0.5 600.11 0.5ZM632.95 0.5L632.95 0.5Q628.9 0.5 625.58-0.65 622.25-1.8 620.05-4.35L620.05-4.35 623.55-7.45Q625.3-5.65 627.63-4.73 629.95-3.8 632.8-3.8L632.8-3.8Q633.9-3.8 635.05-3.95 636.2-4.1 637.18-4.5 638.15-4.9 638.73-5.55 639.3-6.2 639.3-7.1L639.3-7.1Q639.3-8.6 637.3-9.4L637.3-9.4Q636.3-9.75 634.9-10.13 633.5-10.5 631.7-10.85L631.7-10.85Q628.7-11.5 626.45-12.25 624.2-13 622.8-14.2L622.8-14.2Q621.75-15.15 621.2-16.38 620.65-17.6 620.65-19.2L620.65-19.2Q620.65-20.95 621.55-22.33 622.45-23.7 624.03-24.73 625.6-25.75 627.7-26.28 629.8-26.8 632.25-26.8L632.25-26.8Q634.4-26.8 636.63-26.35 638.85-25.9 640.85-24.95 642.85-24 644.2-22.6L644.2-22.6 641.4-19.2Q640.2-20.15 638.65-20.93 637.1-21.7 635.48-22.13 633.85-22.55 632.4-22.55L632.4-22.55Q631.2-22.55 630.05-22.4 628.9-22.25 627.93-21.88 626.95-21.5 626.38-20.88 625.8-20.25 625.8-19.4L625.8-19.4Q625.85-18.8 626.18-18.28 626.5-17.75 627.1-17.35L627.1-17.35Q628-16.75 629.63-16.28 631.25-15.8 633.35-15.4L633.35-15.4Q636-14.9 638.2-14.2 640.4-13.5 641.85-12.45L641.85-12.45Q643.1-11.6 643.73-10.43 644.35-9.25 644.35-7.7L644.35-7.7Q644.35-5.15 642.83-3.3 641.3-1.45 638.7-0.48 636.1 0.5 632.95 0.5ZM655.45 9.6L655.45 9.6 653.25 7.05Q655.35 5.85 656.7 4.53 658.05 3.2 658.05 2.2L658.05 2.2Q658.05 1.45 657.58 0.95 657.1 0.45 656.25-0.25L656.25-0.25Q655.25-1 654.58-1.7 653.9-2.4 653.9-3.5L653.9-3.5Q653.9-5.05 655-5.88 656.1-6.7 657.75-6.7L657.75-6.7Q659.25-6.7 660.58-5.85 661.9-5 662.7-3.53 663.5-2.05 663.5-0.25L663.5-0.25Q663.5 1.25 662.83 2.73 662.15 4.2 661 5.53 659.85 6.85 658.43 7.9 657 8.95 655.45 9.6ZM712.45 0.5L712.45 0.5Q708.25 0.5 704.72-0.88 701.2-2.25 698.57-4.7 695.95-7.15 694.52-10.43 693.1-13.7 693.1-17.5L693.1-17.5Q693.1-21.3 694.52-24.58 695.95-27.85 698.57-30.3 701.2-32.75 704.72-34.13 708.25-35.5 712.45-35.5L712.45-35.5Q716.7-35.5 720.22-34.15 723.75-32.8 726.37-30.33 729-27.85 730.42-24.58 731.85-21.3 731.85-17.5L731.85-17.5Q731.85-13.7 730.42-10.43 729-7.15 726.37-4.67 723.75-2.2 720.22-0.85 716.7 0.5 712.45 0.5ZM712.5-4.75L712.5-4.75Q715.55-4.75 718.07-5.73 720.6-6.7 722.45-8.43 724.3-10.15 725.32-12.48 726.35-14.8 726.35-17.5L726.35-17.5Q726.35-20.2 725.32-22.53 724.3-24.85 722.45-26.58 720.6-28.3 718.05-29.28 715.5-30.25 712.5-30.25L712.5-30.25Q709.45-30.25 706.9-29.28 704.35-28.3 702.47-26.6 700.6-24.9 699.6-22.58 698.6-20.25 698.6-17.5L698.6-17.5Q698.6-14.8 699.6-12.45 700.6-10.1 702.47-8.4 704.35-6.7 706.9-5.73 709.45-4.75 712.5-4.75ZM754.29 0.5L754.29 0.5Q751.09 0.5 748.72-0.98 746.34-2.45 745.02-5.2 743.69-7.95 743.69-11.75L743.69-11.75 743.69-26.25 748.84-26.25 748.84-13.4Q748.84-10.5 749.67-8.47 750.49-6.45 752.17-5.4 753.84-4.35 756.39-4.35L756.39-4.35Q758.14-4.35 759.69-4.93 761.24-5.5 762.42-6.55 763.59-7.6 764.27-9.1 764.94-10.6 764.94-12.4L764.94-12.4 764.94-26.25 770.09-26.25 770.09 0 764.94 0 764.94-5.5 765.84-6.1Q765.19-4.45 763.59-2.93 761.99-1.4 759.62-0.45 757.24 0.5 754.29 0.5ZM790.24 0L785.04 0 785.04-26.25 790.24-26.25 790.24-17.25 789.19-18.3Q789.84-20.65 791.47-22.58 793.09-24.5 795.22-25.65 797.34-26.8 799.64-26.8L799.64-26.8Q801.04-26.8 802.37-26.5 803.69-26.2 804.44-25.75L804.44-25.75 803.09-20.3Q802.19-20.8 800.97-21.08 799.74-21.35 798.64-21.35L798.64-21.35Q796.79-21.35 795.27-20.7 793.74-20.05 792.62-18.95 791.49-17.85 790.87-16.5 790.24-15.15 790.24-13.65L790.24-13.65 790.24 0ZM850.99 0L835.04 0 835.04-35 850.99-35Q855.34-35 858.71-33.68 862.09-32.35 864.44-29.95 866.79-27.55 867.99-24.38 869.19-21.2 869.19-17.5L869.19-17.5Q869.19-13.75 867.99-10.55 866.79-7.35 864.46-5 862.14-2.65 858.74-1.33 855.34 0 850.99 0L850.99 0ZM840.44-30.25L840.44-4.65 840.29-5.2 850.74-5.2Q853.99-5.2 856.41-6.1 858.84-7 860.41-8.65 861.99-10.3 862.76-12.55 863.54-14.8 863.54-17.5L863.54-17.5Q863.54-20.15 862.76-22.38 861.99-24.6 860.39-26.28 858.79-27.95 856.39-28.88 853.99-29.8 850.74-29.8L850.74-29.8 840.14-29.8 840.44-30.25ZM887.08 0L881.93 0 881.93-26.25 887.08-26.25 887.08 0ZM884.43-32.35L884.43-32.35Q882.78-32.35 881.88-33.2 880.98-34.05 880.98-35.6L880.98-35.6Q880.98-37.05 881.91-37.95 882.83-38.85 884.43-38.85L884.43-38.85Q886.08-38.85 886.98-38 887.88-37.15 887.88-35.6L887.88-35.6Q887.88-34.15 886.96-33.25 886.03-32.35 884.43-32.35ZM915.78 11.5L915.78 11.5Q911.98 11.5 908.96 10.58 905.93 9.65 904.08 8.35L904.08 8.35 905.93 4.2Q906.98 4.8 908.48 5.43 909.98 6.05 911.83 6.48 913.68 6.9 915.78 6.9L915.78 6.9Q918.58 6.9 920.66 5.85 922.73 4.8 923.86 2.8 924.98 0.8 924.98-2.1L924.98-2.1 924.98-6.05 925.53-5.7Q925.28-4.25 923.56-2.8 921.83-1.35 919.26-0.43 916.68 0.5 913.78 0.5L913.78 0.5Q909.63 0.5 906.41-1.25 903.18-3 901.36-6.1 899.53-9.2 899.53-13.15L899.53-13.15Q899.53-17.15 901.43-20.23 903.33-23.3 906.63-25.05 909.93-26.8 914.18-26.8L914.18-26.8Q915.48-26.8 917.06-26.48 918.63-26.15 920.18-25.53 921.73-24.9 923.06-24.1 924.38-23.3 925.21-22.38 926.03-21.45 926.08-20.5L926.08-20.5 924.98-20.1 924.98-26.25 930.13-26.25 930.13-2.7Q930.13 0.8 929.03 3.48 927.93 6.15 925.96 7.93 923.98 9.7 921.36 10.6 918.73 11.5 915.78 11.5ZM915.18-4.25L915.18-4.25Q918.13-4.25 920.41-5.4 922.68-6.55 923.93-8.58 925.18-10.6 925.18-13.15L925.18-13.15Q925.18-15.75 923.93-17.75 922.68-19.75 920.41-20.93 918.13-22.1 915.18-22.1L915.18-22.1Q912.18-22.1 909.83-20.93 907.48-19.75 906.13-17.73 904.78-15.7 904.78-13.15L904.78-13.15Q904.78-10.65 906.13-8.63 907.48-6.6 909.83-5.43 912.18-4.25 915.18-4.25ZM950.58 0L945.43 0 945.43-26.25 950.58-26.25 950.58 0ZM947.93-32.35L947.93-32.35Q946.28-32.35 945.38-33.2 944.48-34.05 944.48-35.6L944.48-35.6Q944.48-37.05 945.4-37.95 946.33-38.85 947.93-38.85L947.93-38.85Q949.58-38.85 950.48-38 951.38-37.15 951.38-35.6L951.38-35.6Q951.38-34.15 950.45-33.25 949.53-32.35 947.93-32.35ZM974.93 0L969.78 0 969.78-33.8 974.93-33.8 974.93 0ZM983.28-21.25L962.63-21.25 962.63-26.25 983.28-26.25 983.28-21.25ZM1005.77 0.5L1005.77 0.5Q1001.72 0.5 998.57-1.28 995.42-3.05 993.65-6.15 991.87-9.25 991.87-13.15L991.87-13.15Q991.87-17.15 993.72-20.23 995.57-23.3 998.8-25.05 1002.02-26.8 1006.17-26.8L1006.17-26.8Q1008.67-26.8 1010.82-26.15 1012.97-25.5 1014.57-24.43 1016.17-23.35 1017.12-22.03 1018.07-20.7 1018.12-19.35L1018.12-19.35 1016.77-19.45 1016.77-26.25 1021.97-26.25 1021.97 0 1016.77 0 1016.77-6.8 1017.87-6.75Q1017.77-5.5 1016.75-4.23 1015.72-2.95 1014.05-1.88 1012.37-0.8 1010.25-0.15 1008.12 0.5 1005.77 0.5ZM1007.02-4.25L1007.02-4.25Q1009.97-4.25 1012.22-5.43 1014.47-6.6 1015.72-8.63 1016.97-10.65 1016.97-13.15L1016.97-13.15Q1016.97-15.7 1015.72-17.7 1014.47-19.7 1012.22-20.85 1009.97-22 1007.02-22L1007.02-22Q1004.12-22 1001.9-20.85 999.67-19.7 998.4-17.7 997.12-15.7 997.12-13.15L997.12-13.15Q997.12-10.65 998.4-8.63 999.67-6.6 1001.9-5.43 1004.12-4.25 1007.02-4.25ZM1041.82 0L1036.67 0 1036.67-37 1041.82-37 1041.82 0ZM1102.27 0L1076.32 0 1076.32-35 1102.27-35 1102.27-29.8 1081.72-29.8 1081.72-5.2 1102.27-5.2 1102.27 0ZM1099.52-15.35L1079.07-15.35 1079.07-20.55 1099.52-20.55 1099.52-15.35ZM1144.01 0L1137.01 0 1126.76-11.4 1125.86-12.4 1113.51-26.25 1120.71-26.25 1130.01-15.2 1130.86-14.2 1144.01 0ZM1119.76 0L1113.01 0 1125.01-13.8 1128.36-10.45 1119.76 0ZM1143.41-26.25L1131.16-12.55 1128.21-16.15 1136.61-26.25 1143.41-26.25ZM1161.51 11L1156.31 11 1156.31-26.3 1161.51-26.3 1161.51-20.25 1160.71-20.7Q1161.06-22.1 1162.71-23.48 1164.36-24.85 1166.79-25.78 1169.21-26.7 1171.96-26.7L1171.96-26.7Q1176.21-26.7 1179.39-24.98 1182.56-23.25 1184.36-20.2 1186.16-17.15 1186.16-13.15L1186.16-13.15Q1186.16-9.2 1184.36-6.13 1182.56-3.05 1179.39-1.3 1176.21 0.45 1172.11 0.45L1172.11 0.45Q1169.16 0.45 1166.59-0.53 1164.01-1.5 1162.29-2.98 1160.56-4.45 1160.21-5.85L1160.21-5.85 1161.51-6.55 1161.51 11ZM1171.26-4.3L1171.26-4.3Q1174.16-4.3 1176.41-5.48 1178.66-6.65 1179.94-8.65 1181.21-10.65 1181.21-13.15L1181.21-13.15Q1181.21-15.65 1179.94-17.65 1178.66-19.65 1176.44-20.8 1174.21-21.95 1171.26-21.95L1171.26-21.95Q1168.36-21.95 1166.09-20.8 1163.81-19.65 1162.54-17.65 1161.26-15.65 1161.26-13.15L1161.26-13.15Q1161.26-10.65 1162.54-8.65 1163.81-6.65 1166.09-5.48 1168.36-4.3 1171.26-4.3ZM1211.06 0.5L1211.06 0.5Q1206.36 0.5 1202.71-1.23 1199.06-2.95 1197.01-5.98 1194.96-9 1194.96-12.85L1194.96-12.85Q1194.96-16.05 1196.16-18.63 1197.36-21.2 1199.51-23.03 1201.66-24.85 1204.51-25.85 1207.36-26.85 1210.61-26.85L1210.61-26.85Q1213.56-26.85 1216.16-25.9 1218.76-24.95 1220.71-23.25 1222.66-21.55 1223.71-19.23 1224.76-16.9 1224.71-14.1L1224.71-14.1 1224.66-11.6 1199.31-11.6 1198.16-15.7 1220.21-15.7 1219.46-15.15 1219.46-16.35Q1219.26-18.05 1217.96-19.35 1216.66-20.65 1214.73-21.38 1212.81-22.1 1210.61-22.1L1210.61-22.1Q1207.51-22.1 1205.11-21.18 1202.71-20.25 1201.38-18.28 1200.06-16.3 1200.06-13.2L1200.06-13.2Q1200.06-10.5 1201.53-8.47 1203.01-6.45 1205.68-5.35 1208.36-4.25 1211.81-4.25L1211.81-4.25Q1214.96-4.25 1217.18-5.13 1219.41-6 1221.16-7.3L1221.16-7.3 1223.56-3.5Q1222.21-2.4 1220.18-1.5 1218.16-0.6 1215.78-0.05 1213.41 0.5 1211.06 0.5ZM1242.61 0L1237.41 0 1237.41-26.25 1242.61-26.25 1242.61-17.25 1241.56-18.3Q1242.21-20.65 1243.83-22.58 1245.46-24.5 1247.58-25.65 1249.71-26.8 1252.01-26.8L1252.01-26.8Q1253.41-26.8 1254.73-26.5 1256.06-26.2 1256.81-25.75L1256.81-25.75 1255.46-20.3Q1254.56-20.8 1253.33-21.08 1252.11-21.35 1251.01-21.35L1251.01-21.35Q1249.16-21.35 1247.63-20.7 1246.11-20.05 1244.98-18.95 1243.86-17.85 1243.23-16.5 1242.61-15.15 1242.61-13.65L1242.61-13.65 1242.61 0ZM1277.8 0L1272.65 0 1272.65-33.8 1277.8-33.8 1277.8 0ZM1286.15-21.25L1265.5-21.25 1265.5-26.25 1286.15-26.25 1286.15-21.25ZM1304.05 0L1298.9 0 1298.9-26.25 1304.05-26.25 1304.05 0ZM1301.4-32.35L1301.4-32.35Q1299.75-32.35 1298.85-33.2 1297.95-34.05 1297.95-35.6L1297.95-35.6Q1297.95-37.05 1298.88-37.95 1299.8-38.85 1301.4-38.85L1301.4-38.85Q1303.05-38.85 1303.95-38 1304.85-37.15 1304.85-35.6L1304.85-35.6Q1304.85-34.15 1303.93-33.25 1303-32.35 1301.4-32.35ZM1329.15 0.5L1329.15 0.5Q1325.1 0.5 1321.77-0.65 1318.45-1.8 1316.25-4.35L1316.25-4.35 1319.75-7.45Q1321.5-5.65 1323.82-4.73 1326.15-3.8 1329-3.8L1329-3.8Q1330.1-3.8 1331.25-3.95 1332.4-4.1 1333.37-4.5 1334.35-4.9 1334.92-5.55 1335.5-6.2 1335.5-7.1L1335.5-7.1Q1335.5-8.6 1333.5-9.4L1333.5-9.4Q1332.5-9.75 1331.1-10.13 1329.7-10.5 1327.9-10.85L1327.9-10.85Q1324.9-11.5 1322.65-12.25 1320.4-13 1319-14.2L1319-14.2Q1317.95-15.15 1317.4-16.38 1316.85-17.6 1316.85-19.2L1316.85-19.2Q1316.85-20.95 1317.75-22.33 1318.65-23.7 1320.22-24.73 1321.8-25.75 1323.9-26.28 1326-26.8 1328.45-26.8L1328.45-26.8Q1330.6-26.8 1332.82-26.35 1335.05-25.9 1337.05-24.95 1339.05-24 1340.4-22.6L1340.4-22.6 1337.6-19.2Q1336.4-20.15 1334.85-20.93 1333.3-21.7 1331.67-22.13 1330.05-22.55 1328.6-22.55L1328.6-22.55Q1327.4-22.55 1326.25-22.4 1325.1-22.25 1324.12-21.88 1323.15-21.5 1322.57-20.88 1322-20.25 1322-19.4L1322-19.4Q1322.05-18.8 1322.37-18.28 1322.7-17.75 1323.3-17.35L1323.3-17.35Q1324.2-16.75 1325.82-16.28 1327.45-15.8 1329.55-15.4L1329.55-15.4Q1332.2-14.9 1334.4-14.2 1336.6-13.5 1338.05-12.45L1338.05-12.45Q1339.3-11.6 1339.92-10.43 1340.55-9.25 1340.55-7.7L1340.55-7.7Q1340.55-5.15 1339.02-3.3 1337.5-1.45 1334.9-0.48 1332.3 0.5 1329.15 0.5ZM1365.2 0.5L1365.2 0.5Q1360.5 0.5 1356.85-1.23 1353.2-2.95 1351.15-5.98 1349.1-9 1349.1-12.85L1349.1-12.85Q1349.1-16.05 1350.3-18.63 1351.5-21.2 1353.65-23.03 1355.8-24.85 1358.65-25.85 1361.5-26.85 1364.75-26.85L1364.75-26.85Q1367.7-26.85 1370.3-25.9 1372.9-24.95 1374.85-23.25 1376.8-21.55 1377.85-19.23 1378.9-16.9 1378.85-14.1L1378.85-14.1 1378.8-11.6 1353.45-11.6 1352.3-15.7 1374.35-15.7 1373.6-15.15 1373.6-16.35Q1373.4-18.05 1372.1-19.35 1370.8-20.65 1368.87-21.38 1366.95-22.1 1364.75-22.1L1364.75-22.1Q1361.65-22.1 1359.25-21.18 1356.85-20.25 1355.52-18.28 1354.2-16.3 1354.2-13.2L1354.2-13.2Q1354.2-10.5 1355.67-8.47 1357.15-6.45 1359.82-5.35 1362.5-4.25 1365.95-4.25L1365.95-4.25Q1369.1-4.25 1371.32-5.13 1373.55-6 1375.3-7.3L1375.3-7.3 1377.7-3.5Q1376.35-2.4 1374.32-1.5 1372.3-0.6 1369.92-0.05 1367.55 0.5 1365.2 0.5Z" opacity="1" transform="matrix(1,0,0,1,0,0)" fill="#ffffff" class="slogan-text-1" data-fill-palette-color="secondary" id="text-1"></path></svg></g></svg></g></svg></g></svg></g><g><svg viewBox="0 0 129.24556327966394 95.9918313362015" height="95.9918313362015" width="129.24556327966394"><g><svg xmlns="http://www.w3.org/2000/svg" xmlns:xlink="http://www.w3.org/1999/xlink" version="1.1" x="0" y="0" viewBox="7.5 18.435 85.001 63.131" enable-background="new 0 0 100 100" xml:space="preserve" height="95.9918313362015" width="129.24556327966394" class="icon-icon-0" data-fill-palette-color="accent" id="icon-0"><g fill="#1a3a5a" data-fill-palette-color="accent"><path d="M89.405 18.435H10.595A3.1 3.1 0 0 0 7.5 21.53V78.471A3.1 3.1 0 0 0 10.595 81.566H89.406A3.1 3.1 0 0 0 92.501 78.471V21.529A3.1 3.1 0 0 0 89.405 18.435M10.595 19.673H89.406A1.86 1.86 0 0 1 91.263 21.529V30.604C91.195 30.594 91.127 30.583 91.056 30.583H8.951C8.878 30.583 8.808 30.594 8.738 30.604V21.528C8.738 20.506 9.571 19.673 10.595 19.673M91.263 77.14A0.207 0.207 0 0 1 91.056 77.346H8.951A0.206 0.206 0 0 1 8.745 77.14V32.027C8.745 31.914 8.838 31.821 8.951 31.821H91.055C91.169 31.821 91.262 31.914 91.262 32.027V77.14zM89.405 80.327H10.595A1.855 1.855 0 0 1 8.747 78.563C8.814 78.573 8.882 78.584 8.951 78.584H91.055C91.123 78.584 91.188 78.573 91.252 78.564A1.854 1.854 0 0 1 89.405 80.327" fill="#ffffff" data-fill-palette-color="accent"></path><path d="M28.178 27.787C29.628 27.787 30.808 26.607 30.808 25.157 30.808 23.706 29.628 22.526 28.178 22.526S25.547 23.706 25.547 25.157 26.728 27.787 28.178 27.787M28.178 23.765A1.394 1.394 0 0 1 28.178 26.551 1.394 1.394 0 0 1 28.178 23.765" fill="#ffffff" data-fill-palette-color="accent"></path><path d="M21.458 27.787A2.633 2.633 0 0 0 24.089 25.157 2.634 2.634 0 0 0 21.458 22.526C20.008 22.526 18.828 23.706 18.828 25.157S20.008 27.787 21.458 27.787M21.458 23.765A1.393 1.393 0 1 1 21.458 26.552 1.393 1.393 0 0 1 21.457 23.765" fill="#ffffff" data-fill-palette-color="accent"></path><path d="M14.738 27.787A2.633 2.633 0 0 0 17.369 25.157 2.634 2.634 0 0 0 14.738 22.526C13.288 22.526 12.108 23.706 12.108 25.157S13.288 27.787 14.738 27.787M14.738 23.765A1.393 1.393 0 1 1 14.738 26.552 1.393 1.393 0 0 1 14.737 23.765" fill="#ffffff" data-fill-palette-color="accent"></path></g><path d="M26.598 65.915C25.974 65.915 25.203 65.486 24.309 64.639 22.704 63.12 22.149 62.268 23.109 61.234L31.899 52.423 23.125 43.641C22.449 42.965 22.555 42.446 22.724 42.071 22.966 41.527 23.538 40.954 24.203 40.29 25.032 39.461 25.745 38.748 26.444 38.748 26.786 38.748 27.123 38.92 27.477 39.274L39.246 51.029C39.557 51.283 39.767 51.688 39.81 52.163 39.858 52.7 39.676 53.315 39.358 53.696L27.53 65.514C27.243 65.787 26.941 65.915 26.598 65.915M23.846 42.57C23.837 42.57 23.873 42.638 24 42.764L33.211 51.985A0.62 0.62 0 0 1 33.211 52.86L24 62.093A0.8 0.8 0 0 0 23.867 62.259C23.879 62.306 23.992 62.636 25.159 63.739 26.138 64.666 26.579 64.677 26.597 64.677V65.296L26.607 64.676 26.606 64.677C26.603 64.677 26.626 64.665 26.667 64.627L38.444 52.86C38.505 52.783 38.595 52.503 38.575 52.271A0.44 0.44 0 0 0 38.413 51.943L26.601 40.148C26.457 40.005 26.386 39.977 26.386 39.977 26.204 40.037 25.5 40.741 25.079 41.161 24.548 41.693 24.002 42.239 23.852 42.574 23.85 42.571 23.848 42.57 23.846 42.57" fill="#ffffff" data-fill-palette-color="accent"></path><path d="M55.834 71.436H40.498C38.904 71.436 38.578 70.202 38.578 68.348S38.904 65.26 40.498 65.26H55.834C57.337 65.26 57.621 66.345 57.621 68.348 57.621 70.396 57.346 71.436 55.834 71.436M40.498 66.497C40.132 66.497 39.815 66.497 39.815 68.348S40.131 70.199 40.498 70.199H55.834C56.188 70.199 56.384 70.199 56.384 68.348S56.165 66.497 55.834 66.497z" fill="#ffffff" data-fill-palette-color="accent"></path></svg></g></svg></g></svg></g><defs></defs></svg><rect width="395.52" height="69.0162865207177" fill="none" stroke="none" visibility="hidden"></rect></g></svg></g></svg>