<svg xmlns="http://www.w3.org/2000/svg" version="1.1" xmlns:xlink="http://www.w3.org/1999/xlink" xmlns:svgjs="http://svgjs.dev/svgjs" width="2000" height="378" viewBox="0 0 2000 378"><g transform="matrix(1,0,0,1,2.576784434046317,1.865828499344559)"><svg viewBox="0 0 396 75" data-background-color="#ffffff" preserveAspectRatio="xMidYMid meet" height="378" width="2000" xmlns="http://www.w3.org/2000/svg" xmlns:xlink="http://www.w3.org/1999/xlink"><g id="tight-bounds" transform="matrix(1,0,0,1,0.24077564826234266,0.3867223647813205)"><svg viewBox="0 0 395.52 74.2265892924062" height="74.2265892924062" width="395.52"><g><svg viewBox="0 0 395.52 74.2265892924062" height="74.2265892924062" width="395.52"><g><svg viewBox="0 0 395.52 74.2265892924062" height="74.2265892924062" width="395.52"><g><svg viewBox="0 0 543.4905039481066 101.9959709265751" height="74.2265892924062" width="395.52"><g transform="matrix(1,0,0,1,147.97050394810665,14.096404086089613)"><svg viewBox="0 0 395.52 73.80316275439587" height="73.80316275439587" width="395.52"><g id="textblocktransform"><svg viewBox="0 0 395.52 73.80316275439587" height="73.80316275439587" width="395.52" id="textblock"><g><svg viewBox="0 0 395.52 45.073755575379124" height="45.073755575379124" width="395.52"><g transform="matrix(1,0,0,1,0,0)"><svg width="395.52" viewBox="4.55 -39.6 448.36 51.1" height="45.073755575379124" data-palette-color="#000000"><path d="M11.9 0L4.55 0 4.55-35 11.4-35 24.15-14.25 19.65-14.3 32.55-35 39.1-35 39.1 0 31.75 0 31.75-12Q31.75-16.5 31.98-20.1 32.2-23.7 32.75-27.25L32.75-27.25 33.65-24.9 23.4-9 20.1-9 10.05-24.8 10.9-27.25Q11.45-23.9 11.68-20.38 11.9-16.85 11.9-12L11.9-12 11.9 0ZM57.1 0.5L57.1 0.5Q53.8 0.5 51.15-1.3 48.5-3.1 46.95-6.2 45.4-9.3 45.4-13.3L45.4-13.3Q45.4-17.3 46.97-20.4 48.55-23.5 51.25-25.25 53.95-27 57.4-27L57.4-27Q59.35-27 60.97-26.43 62.6-25.85 63.82-24.85 65.05-23.85 65.9-22.55 66.75-21.25 67.1-19.75L67.1-19.75 65.6-20 65.6-26.45 72.65-26.45 72.65 0 65.5 0 65.5-6.35 67.1-6.5Q66.7-5.1 65.8-3.85 64.9-2.6 63.57-1.63 62.25-0.65 60.6-0.08 58.95 0.5 57.1 0.5ZM59.05-5.65L59.05-5.65Q61.05-5.65 62.55-6.6 64.05-7.55 64.87-9.28 65.7-11 65.7-13.3L65.7-13.3Q65.7-15.55 64.87-17.25 64.05-18.95 62.55-19.93 61.05-20.9 59.05-20.9L59.05-20.9Q57.1-20.9 55.62-19.93 54.15-18.95 53.3-17.25 52.45-15.55 52.45-13.3L52.45-13.3Q52.45-11 53.3-9.28 54.15-7.55 55.62-6.6 57.1-5.65 59.05-5.65ZM87.45 0L80.35 0 80.35-26.45 87.45-26.45 87.45 0ZM83.85-31.85L83.85-31.85Q81.8-31.85 80.65-32.88 79.5-33.9 79.5-35.75L79.5-35.75Q79.5-37.45 80.67-38.53 81.85-39.6 83.85-39.6L83.85-39.6Q85.9-39.6 87.05-38.58 88.2-37.55 88.2-35.75L88.2-35.75Q88.2-34.05 87.02-32.95 85.85-31.85 83.85-31.85ZM95.04 0L95.04 0 95.04-26.45 101.84-26.45 102.04-21.05 100.64-20.45Q101.19-22.25 102.62-23.73 104.04-25.2 106.04-26.1 108.04-27 110.24-27L110.24-27Q113.24-27 115.27-25.8 117.29-24.6 118.32-22.18 119.34-19.75 119.34-16.2L119.34-16.2 119.34 0 112.24 0 112.24-15.65Q112.24-17.45 111.74-18.65 111.24-19.85 110.22-20.4 109.19-20.95 107.69-20.9L107.69-20.9Q106.49-20.9 105.47-20.53 104.44-20.15 103.72-19.45 102.99-18.75 102.57-17.85 102.14-16.95 102.14-15.9L102.14-15.9 102.14 0 98.64 0Q97.49 0 96.59 0 95.69 0 95.04 0ZM138.49 0.5L138.49 0.5Q135.24 0.5 132.57-0.3 129.89-1.1 127.82-2.65 125.74-4.2 124.09-6.4L124.09-6.4 128.79-11.75Q131.24-8.35 133.67-7.13 136.09-5.9 138.94-5.9L138.94-5.9Q140.49-5.9 141.72-6.35 142.94-6.8 143.64-7.58 144.34-8.35 144.34-9.45L144.34-9.45Q144.34-10.25 143.99-10.93 143.64-11.6 142.99-12.13 142.34-12.65 141.44-13.08 140.54-13.5 139.44-13.83 138.34-14.15 137.04-14.35L137.04-14.35Q134.24-15 132.14-15.93 130.04-16.85 128.64-18.23 127.24-19.6 126.57-21.35 125.89-23.1 125.89-25.3L125.89-25.3Q125.89-27.55 126.89-29.48 127.89-31.4 129.67-32.8 131.44-34.2 133.77-34.95 136.09-35.7 138.69-35.7L138.69-35.7Q141.89-35.7 144.29-35 146.69-34.3 148.47-32.93 150.24-31.55 151.44-29.6L151.44-29.6 146.69-25Q145.64-26.4 144.42-27.35 143.19-28.3 141.77-28.78 140.34-29.25 138.84-29.25L138.84-29.25Q137.19-29.25 135.99-28.83 134.79-28.4 134.12-27.58 133.44-26.75 133.44-25.65L133.44-25.65Q133.44-24.75 133.89-24.05 134.34-23.35 135.19-22.83 136.04-22.3 137.24-21.9 138.44-21.5 139.89-21.2L139.89-21.2Q142.64-20.65 144.84-19.75 147.04-18.85 148.62-17.57 150.19-16.3 151.04-14.58 151.89-12.85 151.89-10.7L151.89-10.7Q151.89-7.15 150.19-4.65 148.49-2.15 145.49-0.83 142.49 0.5 138.49 0.5ZM167.34 0L160.24 0 160.24-33.15 167.34-33.15 167.34 0ZM172.79-20.1L155.29-20.1 155.29-26.45 172.79-26.45 172.79-20.1ZM184.54 0L177.39 0 177.39-26.45 184.24-26.45 184.49-17.95 183.29-19.7Q183.89-21.75 185.24-23.43 186.59-25.1 188.41-26.05 190.24-27 192.24-27L192.24-27Q193.09-27 193.89-26.85 194.69-26.7 195.24-26.5L195.24-26.5 193.34-18.7Q192.79-19 191.91-19.23 191.04-19.45 190.14-19.45L190.14-19.45Q188.94-19.45 187.91-19.03 186.89-18.6 186.14-17.82 185.39-17.05 184.96-16 184.54-14.95 184.54-13.7L184.54-13.7 184.54 0ZM210.73 0.5L210.73 0.5Q206.43 0.5 203.21-1.25 199.98-3 198.21-6.05 196.43-9.1 196.43-13.05L196.43-13.05Q196.43-16.15 197.43-18.7 198.43-21.25 200.23-23.13 202.03-25 204.51-26.03 206.98-27.05 209.88-27.05L209.88-27.05Q212.58-27.05 214.88-26.05 217.18-25.05 218.86-23.28 220.53-21.5 221.43-19.07 222.33-16.65 222.23-13.85L222.23-13.85 222.18-11.65 200.93-11.65 199.78-16 216.33-16 215.53-15.1 215.53-16.2Q215.43-17.55 214.66-18.63 213.88-19.7 212.68-20.33 211.48-20.95 209.98-20.95L209.98-20.95Q207.78-20.95 206.26-20.1 204.73-19.25 203.93-17.6 203.13-15.95 203.13-13.6L203.13-13.6Q203.13-11.2 204.16-9.45 205.18-7.7 207.06-6.73 208.93-5.75 211.48-5.75L211.48-5.75Q213.23-5.75 214.68-6.3 216.13-6.85 217.78-8.2L217.78-8.2 221.18-3.45Q219.73-2.15 217.98-1.28 216.23-0.4 214.38 0.05 212.53 0.5 210.73 0.5ZM240.03 0.5L240.03 0.5Q235.73 0.5 232.51-1.25 229.28-3 227.51-6.05 225.73-9.1 225.73-13.05L225.73-13.05Q225.73-16.15 226.73-18.7 227.73-21.25 229.53-23.13 231.33-25 233.81-26.03 236.28-27.05 239.18-27.05L239.18-27.05Q241.88-27.05 244.18-26.05 246.48-25.05 248.16-23.28 249.83-21.5 250.73-19.07 251.63-16.65 251.53-13.85L251.53-13.85 251.48-11.65 230.23-11.65 229.08-16 245.63-16 244.83-15.1 244.83-16.2Q244.73-17.55 243.96-18.63 243.18-19.7 241.98-20.33 240.78-20.95 239.28-20.95L239.28-20.95Q237.08-20.95 235.56-20.1 234.03-19.25 233.23-17.6 232.43-15.95 232.43-13.6L232.43-13.6Q232.43-11.2 233.46-9.45 234.48-7.7 236.36-6.73 238.23-5.75 240.78-5.75L240.78-5.75Q242.53-5.75 243.98-6.3 245.43-6.85 247.08-8.2L247.08-8.2 250.48-3.45Q249.03-2.15 247.28-1.28 245.53-0.4 243.68 0.05 241.83 0.5 240.03 0.5ZM266.43 0L259.33 0 259.33-33.15 266.43-33.15 266.43 0ZM271.88-20.1L254.38-20.1 254.38-26.45 271.88-26.45 271.88-20.1ZM307.17 0L292.82 0 292.82-35 307.17-35Q311.02-35 314.15-33.73 317.27-32.45 319.55-30.13 321.82-27.8 323.02-24.6 324.22-21.4 324.22-17.5L324.22-17.5Q324.22-13.65 323.02-10.43 321.82-7.2 319.57-4.88 317.32-2.55 314.17-1.28 311.02 0 307.17 0L307.17 0ZM300.32-29.45L300.32-5.45 299.52-6.75 306.92-6.75Q309.17-6.75 310.97-7.53 312.77-8.3 314.05-9.68 315.32-11.05 315.97-13.05 316.62-15.05 316.62-17.5L316.62-17.5Q316.62-19.95 315.97-21.93 315.32-23.9 314.05-25.3 312.77-26.7 310.97-27.48 309.17-28.25 306.92-28.25L306.92-28.25 299.37-28.25 300.32-29.45ZM337.72 0L330.62 0 330.62-26.45 337.72-26.45 337.72 0ZM334.12-31.85L334.12-31.85Q332.07-31.85 330.92-32.88 329.77-33.9 329.77-35.75L329.77-35.75Q329.77-37.45 330.95-38.53 332.12-39.6 334.12-39.6L334.12-39.6Q336.17-39.6 337.32-38.58 338.47-37.55 338.47-35.75L338.47-35.75Q338.47-34.05 337.3-32.95 336.12-31.85 334.12-31.85ZM357.37 11.5L357.37 11.5Q354.22 11.5 351.17 10.58 348.12 9.65 346.17 8.15L346.17 8.15 348.72 3.1Q349.72 3.8 351.02 4.35 352.32 4.9 353.74 5.2 355.17 5.5 356.67 5.5L356.67 5.5Q359.27 5.5 360.94 4.7 362.62 3.9 363.47 2.3 364.32 0.7 364.32-1.7L364.32-1.7 364.32-6.3 365.52-6.05Q365.22-4.4 363.84-3.03 362.47-1.65 360.44-0.83 358.42 0 356.22 0L356.22 0Q352.57 0 349.72-1.7 346.87-3.4 345.22-6.4 343.57-9.4 343.57-13.35L343.57-13.35Q343.57-17.3 345.19-20.38 346.82-23.45 349.64-25.23 352.47-27 356.07-27L356.07-27Q357.57-27 358.94-26.65 360.32-26.3 361.49-25.68 362.67-25.05 363.59-24.28 364.52-23.5 365.12-22.6 365.72-21.7 365.87-20.8L365.87-20.8 364.42-20.4 364.62-26.45 371.42-26.45 371.42-2Q371.42 1.25 370.47 3.75 369.52 6.25 367.69 7.98 365.87 9.7 363.24 10.6 360.62 11.5 357.37 11.5ZM357.57-5.7L357.57-5.7Q359.67-5.7 361.24-6.65 362.82-7.6 363.67-9.3 364.52-11 364.52-13.3L364.52-13.3Q364.52-15.55 363.67-17.28 362.82-19 361.24-19.95 359.67-20.9 357.57-20.9L357.57-20.9Q355.52-20.9 353.97-19.93 352.42-18.95 351.54-17.23 350.67-15.5 350.67-13.3L350.67-13.3Q350.67-11.05 351.54-9.33 352.42-7.6 353.97-6.65 355.52-5.7 357.57-5.7ZM386.17 0L379.07 0 379.07-26.45 386.17-26.45 386.17 0ZM382.57-31.85L382.57-31.85Q380.52-31.85 379.37-32.88 378.22-33.9 378.22-35.75L378.22-35.75Q378.22-37.45 379.39-38.53 380.57-39.6 382.57-39.6L382.57-39.6Q384.62-39.6 385.77-38.58 386.92-37.55 386.92-35.75L386.92-35.75Q386.92-34.05 385.74-32.95 384.57-31.85 382.57-31.85ZM403.41 0L396.31 0 396.31-33.15 403.41-33.15 403.41 0ZM408.86-20.1L391.36-20.1 391.36-26.45 408.86-26.45 408.86-20.1ZM423.11 0.5L423.11 0.5Q419.81 0.5 417.16-1.3 414.51-3.1 412.96-6.2 411.41-9.3 411.41-13.3L411.41-13.3Q411.41-17.3 412.99-20.4 414.56-23.5 417.26-25.25 419.96-27 423.41-27L423.41-27Q425.36-27 426.99-26.43 428.61-25.85 429.84-24.85 431.06-23.85 431.91-22.55 432.76-21.25 433.11-19.75L433.11-19.75 431.61-20 431.61-26.45 438.66-26.45 438.66 0 431.51 0 431.51-6.35 433.11-6.5Q432.71-5.1 431.81-3.85 430.91-2.6 429.59-1.63 428.26-0.65 426.61-0.08 424.96 0.5 423.11 0.5ZM425.06-5.65L425.06-5.65Q427.06-5.65 428.56-6.6 430.06-7.55 430.89-9.28 431.71-11 431.71-13.3L431.71-13.3Q431.71-15.55 430.89-17.25 430.06-18.95 428.56-19.93 427.06-20.9 425.06-20.9L425.06-20.9Q423.11-20.9 421.64-19.93 420.16-18.95 419.31-17.25 418.46-15.55 418.46-13.3L418.46-13.3Q418.46-11 419.31-9.28 420.16-7.55 421.64-6.6 423.11-5.65 425.06-5.65ZM452.91 0L445.81 0 445.81-37 452.91-37 452.91 0Z" opacity="1" transform="matrix(1,0,0,1,0,0)" fill="#000000" className="wordmark-text-0" data-fill-palette-color="primary" id="text-0"></path></svg></g></svg></g><g transform="matrix(1,0,0,1,0,55.71458749659233)"><svg viewBox="0 0 375.74399999999997 18.088575257803548" height="18.088575257803548" width="375.74399999999997"><g transform="matrix(1,0,0,1,0,0)"><svg width="375.74399999999997" viewBox="1.03 -38.44 1022.6600000000001 49.239999999999995" height="18.088575257803548" data-palette-color="#6b7280"><path d="M14.29-12.86L1.03-36.36 9.64-36.36 17.93-20.7 18.29-20.7 26.58-36.36 35.19-36.36 21.93-12.86 21.93 0 14.29 0 14.29-12.86ZM51.56 0.53L51.56 0.53Q47.42 0.53 44.41-1.23 41.4-3 39.77-6.17 38.14-9.34 38.14-13.53L38.14-13.53Q38.14-17.76 39.77-20.93 41.4-24.09 44.41-25.86 47.42-27.63 51.56-27.63L51.56-27.63Q55.7-27.63 58.71-25.86 61.72-24.09 63.35-20.93 64.98-17.76 64.98-13.53L64.98-13.53Q64.98-9.34 63.35-6.17 61.72-3 58.71-1.23 55.7 0.53 51.56 0.53ZM51.6-5.33L51.6-5.33Q53.48-5.33 54.74-6.4 56-7.48 56.65-9.34 57.3-11.2 57.3-13.58L57.3-13.58Q57.3-15.96 56.65-17.83 56-19.69 54.74-20.77 53.48-21.86 51.6-21.86L51.6-21.86Q49.7-21.86 48.41-20.77 47.12-19.69 46.47-17.83 45.82-15.96 45.82-13.58L45.82-13.58Q45.82-11.2 46.47-9.34 47.12-7.48 48.41-6.4 49.7-5.33 51.6-5.33ZM87.41-11.61L87.41-11.61 87.41-27.27 94.97-27.27 94.97 0 87.71 0 87.71-4.95 87.42-4.95Q86.5-2.56 84.36-1.1 82.22 0.36 79.15 0.36L79.15 0.36Q76.42 0.36 74.34-0.89 72.26-2.13 71.1-4.42 69.93-6.71 69.92-9.91L69.92-9.91 69.92-27.27 77.48-27.27 77.48-11.26Q77.5-8.84 78.78-7.44 80.06-6.04 82.2-6.04L82.2-6.04Q83.57-6.04 84.76-6.67 85.95-7.3 86.69-8.54 87.42-9.78 87.41-11.61ZM108.57 0L101 0 101-27.27 108.34-27.27 108.34-22.51 108.62-22.51Q109.37-25.05 111.13-26.36 112.88-27.66 115.17-27.66L115.17-27.66Q115.74-27.66 116.4-27.59 117.06-27.52 117.55-27.4L117.55-27.4 117.55-20.69Q117.02-20.85 116.08-20.97 115.14-21.09 114.36-21.09L114.36-21.09Q112.69-21.09 111.38-20.37 110.08-19.66 109.32-18.38 108.57-17.1 108.57-15.43L108.57-15.43 108.57 0ZM156.45 0L133.17 0 133.17-36.36 140.86-36.36 140.86-6.34 156.45-6.34 156.45 0ZM173.72 0.53L173.72 0.53Q169.59 0.53 166.58-1.23 163.57-3 161.93-6.17 160.3-9.34 160.3-13.53L160.3-13.53Q160.3-17.76 161.93-20.93 163.57-24.09 166.58-25.86 169.59-27.63 173.72-27.63L173.72-27.63Q177.86-27.63 180.87-25.86 183.88-24.09 185.51-20.93 187.15-17.76 187.15-13.53L187.15-13.53Q187.15-9.34 185.51-6.17 183.88-3 180.87-1.23 177.86 0.53 173.72 0.53ZM173.76-5.33L173.76-5.33Q175.64-5.33 176.9-6.4 178.16-7.48 178.81-9.34 179.46-11.2 179.46-13.58L179.46-13.58Q179.46-15.96 178.81-17.83 178.16-19.69 176.9-20.77 175.64-21.86 173.76-21.86L173.76-21.86Q171.86-21.86 170.57-20.77 169.29-19.69 168.64-17.83 167.99-15.96 167.99-13.58L167.99-13.58Q167.99-11.2 168.64-9.34 169.29-7.48 170.57-6.4 171.86-5.33 173.76-5.33ZM204.4 0.53L204.4 0.53Q200.21 0.53 197.2-1.25 194.19-3.04 192.59-6.21 190.98-9.39 190.98-13.53L190.98-13.53Q190.98-17.72 192.61-20.89 194.23-24.06 197.23-25.84 200.23-27.63 204.37-27.63L204.37-27.63Q207.94-27.63 210.62-26.33 213.3-25.04 214.86-22.69 216.42-20.35 216.58-17.19L216.58-17.19 209.45-17.19Q209.14-19.23 207.86-20.48 206.57-21.73 204.49-21.73L204.49-21.73Q202.73-21.73 201.43-20.78 200.12-19.83 199.4-18.02 198.67-16.21 198.67-13.64L198.67-13.64Q198.67-11.03 199.39-9.2 200.11-7.37 201.42-6.41 202.73-5.45 204.49-5.45L204.49-5.45Q205.79-5.45 206.83-5.98 207.87-6.52 208.55-7.54 209.23-8.56 209.45-10L209.45-10 216.58-10Q216.41-6.87 214.89-4.5 213.37-2.13 210.71-0.8 208.04 0.53 204.4 0.53ZM229.22 0.51L229.22 0.51Q226.61 0.51 224.57-0.4 222.53-1.31 221.35-3.12 220.17-4.92 220.17-7.62L220.17-7.62Q220.17-9.89 221-11.43 221.84-12.98 223.28-13.92 224.71-14.86 226.55-15.34 228.39-15.82 230.41-16.02L230.41-16.02Q232.79-16.26 234.25-16.49 235.7-16.71 236.36-17.15 237.02-17.6 237.02-18.47L237.02-18.47 237.02-18.57Q237.02-20.26 235.96-21.18 234.91-22.11 232.97-22.11L232.97-22.11Q230.93-22.11 229.72-21.21 228.51-20.31 228.12-18.96L228.12-18.96 221.13-19.53Q221.66-22.02 223.22-23.84 224.78-25.66 227.26-26.64 229.74-27.63 233.01-27.63L233.01-27.63Q235.28-27.63 237.36-27.1 239.45-26.56 241.08-25.44 242.7-24.33 243.64-22.58 244.58-20.83 244.58-18.39L244.58-18.39 244.58 0 237.41 0 237.41-3.78 237.2-3.78Q236.54-2.5 235.44-1.54 234.34-0.57 232.79-0.03 231.25 0.51 229.22 0.51ZM231.39-4.71L231.39-4.71Q233.06-4.71 234.34-5.37 235.62-6.04 236.34-7.17 237.07-8.31 237.07-9.75L237.07-9.75 237.07-12.64Q236.72-12.41 236.1-12.22 235.49-12.04 234.73-11.89 233.96-11.74 233.2-11.62 232.44-11.51 231.82-11.42L231.82-11.42Q230.48-11.22 229.49-10.8 228.5-10.37 227.95-9.65 227.39-8.93 227.39-7.87L227.39-7.87Q227.39-6.32 228.52-5.51 229.65-4.71 231.39-4.71ZM250.46-36.36L258.02-36.36 258.02 0 250.46 0 250.46-36.36ZM291.33 0L275.79 0 275.79-36.36 290.35-36.36Q294.36-36.36 297.04-35.17 299.72-33.98 301.07-31.88 302.42-29.78 302.42-27.04L302.42-27.04Q302.42-24.91 301.57-23.3 300.72-21.7 299.24-20.68 297.75-19.66 295.85-19.23L295.85-19.23 295.85-18.87Q297.93-18.79 299.75-17.7 301.57-16.62 302.71-14.68 303.84-12.73 303.84-10.05L303.84-10.05Q303.84-7.16 302.41-4.89 300.98-2.63 298.2-1.31 295.41 0 291.33 0L291.33 0ZM283.48-15.94L283.48-6.29 289.75-6.29Q292.96-6.29 294.43-7.52 295.91-8.75 295.91-10.81L295.91-10.81Q295.91-12.32 295.18-13.48 294.45-14.63 293.11-15.29 291.77-15.94 289.92-15.94L289.92-15.94 283.48-15.94ZM283.48-30.15L283.48-21.15 289.18-21.15Q290.76-21.15 291.99-21.71 293.23-22.27 293.94-23.3 294.66-24.33 294.66-25.76L294.66-25.76Q294.66-27.73 293.27-28.94 291.88-30.15 289.32-30.15L289.32-30.15 283.48-30.15ZM326.18-11.61L326.18-11.61 326.18-27.27 333.74-27.27 333.74 0 326.48 0 326.48-4.95 326.2-4.95Q325.27-2.56 323.13-1.1 320.99 0.36 317.92 0.36L317.92 0.36Q315.19 0.36 313.11-0.89 311.03-2.13 309.87-4.42 308.71-6.71 308.69-9.91L308.69-9.91 308.69-27.27 316.25-27.27 316.25-11.26Q316.27-8.84 317.55-7.44 318.83-6.04 320.97-6.04L320.97-6.04Q322.34-6.04 323.53-6.67 324.72-7.3 325.46-8.54 326.2-9.78 326.18-11.61ZM362.47-19.5L362.47-19.5 355.54-19.07Q355.37-19.96 354.78-20.68 354.19-21.4 353.24-21.83 352.29-22.27 350.98-22.27L350.98-22.27Q349.22-22.27 348.01-21.53 346.81-20.79 346.81-19.57L346.81-19.57Q346.81-18.59 347.59-17.92 348.37-17.24 350.27-16.83L350.27-16.83 355.21-15.84Q359.18-15.02 361.14-13.21 363.09-11.4 363.09-8.45L363.09-8.45Q363.09-5.77 361.52-3.75 359.95-1.72 357.22-0.59 354.5 0.53 350.94 0.53L350.94 0.53Q345.53 0.53 342.32-1.73 339.12-4 338.57-7.9L338.57-7.9 346.01-8.29Q346.35-6.64 347.64-5.78 348.94-4.92 350.96-4.92L350.96-4.92Q352.95-4.92 354.17-5.69 355.38-6.46 355.4-7.69L355.4-7.69Q355.38-8.72 354.53-9.38 353.68-10.05 351.9-10.4L351.9-10.4 347.18-11.35Q343.18-12.14 341.24-14.12 339.3-16.09 339.3-19.14L339.3-19.14Q339.3-21.77 340.73-23.67 342.16-25.57 344.76-26.6 347.36-27.63 350.86-27.63L350.86-27.63Q356.02-27.63 359-25.44 361.97-23.26 362.47-19.5ZM375.43 0L367.86 0 367.86-27.27 375.43-27.27 375.43 0ZM371.66-30.79L371.66-30.79Q369.98-30.79 368.78-31.92 367.58-33.04 367.58-34.62L367.58-34.62Q367.58-36.19 368.78-37.31 369.98-38.44 371.66-38.44L371.66-38.44Q373.35-38.44 374.55-37.31 375.75-36.19 375.75-34.62L375.75-34.62Q375.75-33.04 374.55-31.92 373.35-30.79 371.66-30.79ZM389.03-15.77L389.03-15.77 389.03 0 381.46 0 381.46-27.27 388.67-27.27 388.67-22.46 388.99-22.46Q389.9-24.84 392.03-26.23 394.16-27.63 397.19-27.63L397.19-27.63Q400.03-27.63 402.15-26.38 404.26-25.14 405.43-22.84 406.6-20.54 406.6-17.37L406.6-17.37 406.6 0 399.04 0 399.04-16.02Q399.06-18.52 397.76-19.93 396.46-21.34 394.19-21.34L394.19-21.34Q392.66-21.34 391.5-20.69 390.34-20.03 389.69-18.78 389.04-17.52 389.03-15.77ZM424.98 0.53L424.98 0.53Q420.77 0.53 417.74-1.18 414.71-2.89 413.08-6.05 411.45-9.2 411.45-13.51L411.45-13.51Q411.45-17.72 413.08-20.9 414.71-24.08 417.69-25.85 420.66-27.63 424.68-27.63L424.68-27.63Q427.37-27.63 429.71-26.77 432.04-25.91 433.79-24.18 435.54-22.46 436.52-19.86 437.5-17.26 437.5-13.78L437.5-13.78 437.5-11.7 414.47-11.7 414.47-16.39 430.38-16.39Q430.38-18.02 429.67-19.28 428.96-20.54 427.7-21.26 426.45-21.98 424.8-21.98L424.8-21.98Q423.08-21.98 421.76-21.19 420.43-20.4 419.69-19.08 418.94-17.76 418.92-16.14L418.92-16.14 418.92-11.68Q418.92-9.66 419.68-8.19 420.43-6.71 421.82-5.91 423.2-5.11 425.1-5.11L425.1-5.11Q426.36-5.11 427.41-5.47 428.46-5.82 429.2-6.53 429.95-7.24 430.34-8.27L430.34-8.27 437.34-7.81Q436.8-5.29 435.16-3.42 433.52-1.54 430.93-0.51 428.35 0.53 424.98 0.53ZM465.12-19.5L465.12-19.5 458.2-19.07Q458.02-19.96 457.43-20.68 456.85-21.4 455.9-21.83 454.95-22.27 453.63-22.27L453.63-22.27Q451.88-22.27 450.67-21.53 449.46-20.79 449.46-19.57L449.46-19.57Q449.46-18.59 450.24-17.92 451.02-17.24 452.92-16.83L452.92-16.83 457.86-15.84Q461.84-15.02 463.79-13.21 465.74-11.4 465.74-8.45L465.74-8.45Q465.74-5.77 464.17-3.75 462.6-1.72 459.87-0.59 457.15 0.53 453.6 0.53L453.6 0.53Q448.18 0.53 444.98-1.73 441.77-4 441.22-7.9L441.22-7.9 448.66-8.29Q449-6.64 450.29-5.78 451.59-4.92 453.62-4.92L453.62-4.92Q455.6-4.92 456.82-5.69 458.04-6.46 458.05-7.69L458.05-7.69Q458.04-8.72 457.18-9.38 456.33-10.05 454.56-10.4L454.56-10.4 449.83-11.35Q445.84-12.14 443.89-14.12 441.95-16.09 441.95-19.14L441.95-19.14Q441.95-21.77 443.38-23.67 444.81-25.57 447.41-26.6 450.01-27.63 453.51-27.63L453.51-27.63Q458.68-27.63 461.65-25.44 464.62-23.26 465.12-19.5ZM493.21-19.5L493.21-19.5 486.28-19.07Q486.11-19.96 485.52-20.68 484.93-21.4 483.98-21.83 483.03-22.27 481.72-22.27L481.72-22.27Q479.96-22.27 478.75-21.53 477.55-20.79 477.55-19.57L477.55-19.57Q477.55-18.59 478.33-17.92 479.11-17.24 481.01-16.83L481.01-16.83 485.95-15.84Q489.92-15.02 491.88-13.21 493.83-11.4 493.83-8.45L493.83-8.45Q493.83-5.77 492.26-3.75 490.69-1.72 487.96-0.59 485.24 0.53 481.68 0.53L481.68 0.53Q476.27 0.53 473.06-1.73 469.86-4 469.31-7.9L469.31-7.9 476.75-8.29Q477.09-6.64 478.38-5.78 479.68-4.92 481.7-4.92L481.7-4.92Q483.69-4.92 484.91-5.69 486.12-6.46 486.14-7.69L486.14-7.69Q486.12-8.72 485.27-9.38 484.42-10.05 482.64-10.4L482.64-10.4 477.92-11.35Q473.93-12.14 471.98-14.12 470.04-16.09 470.04-19.14L470.04-19.14Q470.04-21.77 471.47-23.67 472.9-25.57 475.5-26.6 478.1-27.63 481.6-27.63L481.6-27.63Q486.76-27.63 489.74-25.44 492.71-23.26 493.21-19.5ZM500.57-4.97L506.82-4.97 506.63-3.02Q506.4-0.67 505.75 1.66 505.1 4 504.4 5.89 503.7 7.79 503.27 8.88L503.27 8.88 498.37 8.88Q498.64 7.83 499.1 5.96 499.56 4.08 499.97 1.76 500.38-0.57 500.49-2.98L500.49-2.98 500.57-4.97ZM558.9-18.18L558.9-18.18Q558.9-12.23 556.65-8.06 554.4-3.89 550.54-1.7 546.68 0.5 541.87 0.5L541.87 0.5Q537.02 0.5 533.17-1.7 529.32-3.91 527.08-8.08 524.84-12.25 524.84-18.18L524.84-18.18Q524.84-24.13 527.08-28.3 529.32-32.48 533.17-34.67 537.02-36.86 541.87-36.86L541.87-36.86Q546.68-36.86 550.54-34.67 554.4-32.48 556.65-28.3 558.9-24.13 558.9-18.18ZM551.1-18.18L551.1-18.18Q551.1-22.03 549.96-24.68 548.81-27.33 546.73-28.69 544.66-30.06 541.87-30.06L541.87-30.06Q539.08-30.06 537-28.69 534.93-27.33 533.78-24.68 532.64-22.03 532.64-18.18L532.64-18.18Q532.64-14.33 533.78-11.68 534.93-9.04 537-7.67 539.08-6.3 541.87-6.3L541.87-6.3Q544.66-6.3 546.73-7.67 548.81-9.04 549.96-11.68 551.1-14.33 551.1-18.18ZM581.92-11.61L581.92-11.61 581.92-27.27 589.49-27.27 589.49 0 582.22 0 582.22-4.95 581.94-4.95Q581.02-2.56 578.88-1.1 576.74 0.36 573.67 0.36L573.67 0.36Q570.93 0.36 568.85-0.89 566.78-2.13 565.61-4.42 564.45-6.71 564.43-9.91L564.43-9.91 564.43-27.27 572-27.27 572-11.26Q572.02-8.84 573.29-7.44 574.57-6.04 576.72-6.04L576.72-6.04Q578.09-6.04 579.28-6.67 580.47-7.3 581.2-8.54 581.94-9.78 581.92-11.61ZM603.09 0L595.52 0 595.52-27.27 602.85-27.27 602.85-22.51 603.14-22.51Q603.88-25.05 605.64-26.36 607.4-27.66 609.69-27.66L609.69-27.66Q610.26-27.66 610.92-27.59 611.57-27.52 612.07-27.4L612.07-27.4 612.07-20.69Q611.54-20.85 610.6-20.97 609.65-21.09 608.87-21.09L608.87-21.09Q607.2-21.09 605.9-20.37 604.59-19.66 603.84-18.38 603.09-17.1 603.09-15.43L603.09-15.43 603.09 0ZM640.58 0L640.58 0 627.69 0 627.69-36.36 640.69-36.36Q646.17-36.36 650.13-34.19 654.09-32.01 656.23-27.95 658.37-23.88 658.37-18.22L658.37-18.22Q658.37-12.54 656.23-8.45 654.09-4.37 650.11-2.18 646.12 0 640.58 0ZM635.38-29.78L635.38-6.59 640.26-6.59Q643.67-6.59 646-7.8 648.34-9.02 649.52-11.59 650.7-14.15 650.7-18.22L650.7-18.22Q650.7-22.25 649.52-24.8 648.34-27.36 646.01-28.57 643.69-29.78 640.28-29.78L640.28-29.78 635.38-29.78ZM671.47 0L663.91 0 663.91-27.27 671.47-27.27 671.47 0ZM667.71-30.79L667.71-30.79Q666.02-30.79 664.82-31.92 663.62-33.04 663.62-34.62L663.62-34.62Q663.62-36.19 664.82-37.31 666.02-38.44 667.71-38.44L667.71-38.44Q669.4-38.44 670.59-37.31 671.79-36.19 671.79-34.62L671.79-34.62Q671.79-33.04 670.59-31.92 669.4-30.79 667.71-30.79ZM689.79 10.8L689.79 10.8Q686.12 10.8 683.5 9.79 680.88 8.79 679.34 7.07 677.79 5.34 677.33 3.2L677.33 3.2 684.33 2.25Q684.64 3.07 685.34 3.78 686.03 4.49 687.18 4.93 688.32 5.36 689.97 5.36L689.97 5.36Q692.44 5.36 694.05 4.16 695.65 2.97 695.65 0.16L695.65 0.16 695.65-4.83 695.33-4.83Q694.84-3.69 693.84-2.68 692.85-1.67 691.29-1.03 689.72-0.39 687.56-0.39L687.56-0.39Q684.49-0.39 681.97-1.82 679.46-3.25 677.98-6.21 676.49-9.16 676.49-13.69L676.49-13.69Q676.49-18.32 678-21.43 679.51-24.54 682.03-26.08 684.54-27.63 687.54-27.63L687.54-27.63Q689.83-27.63 691.37-26.86 692.92-26.08 693.87-24.94 694.82-23.79 695.33-22.69L695.33-22.69 695.62-22.69 695.62-27.27 703.13-27.27 703.13 0.27Q703.13 3.75 701.42 6.09 699.72 8.43 696.71 9.61 693.7 10.8 689.79 10.8ZM689.95-6.07L689.95-6.07Q691.78-6.07 693.05-6.99 694.32-7.9 695.01-9.61 695.69-11.33 695.69-13.73L695.69-13.73Q695.69-16.12 695.01-17.89 694.34-19.66 693.06-20.63 691.78-21.61 689.95-21.61L689.95-21.61Q688.09-21.61 686.81-20.61 685.53-19.6 684.88-17.83 684.22-16.05 684.22-13.73L684.22-13.73Q684.22-11.36 684.88-9.65 685.55-7.94 686.82-7 688.09-6.07 689.95-6.07ZM716.73 0L709.16 0 709.16-27.27 716.73-27.27 716.73 0ZM712.96-30.79L712.96-30.79Q711.28-30.79 710.08-31.92 708.88-33.04 708.88-34.62L708.88-34.62Q708.88-36.19 710.08-37.31 711.28-38.44 712.96-38.44L712.96-38.44Q714.65-38.44 715.85-37.31 717.05-36.19 717.05-34.62L717.05-34.62Q717.05-33.04 715.85-31.92 714.65-30.79 712.96-30.79ZM720.84-27.27L737.27-27.27 737.27-21.59 720.84-21.59 720.84-27.27ZM724.57-7.39L724.57-33.81 732.14-33.81 732.14-8.38Q732.14-7.33 732.46-6.76 732.78-6.18 733.35-5.95 733.93-5.72 734.69-5.72L734.69-5.72Q735.23-5.72 735.76-5.81 736.29-5.91 736.58-5.97L736.58-5.97 737.76-0.34Q737.2-0.16 736.17 0.08 735.14 0.32 733.66 0.37L733.66 0.37Q730.93 0.48 728.88-0.36 726.83-1.19 725.69-2.95 724.55-4.71 724.57-7.39L724.57-7.39ZM749.96 0.51L749.96 0.51Q747.35 0.51 745.31-0.4 743.27-1.31 742.09-3.12 740.91-4.92 740.91-7.62L740.91-7.62Q740.91-9.89 741.74-11.43 742.57-12.98 744.01-13.92 745.45-14.86 747.29-15.34 749.13-15.82 751.15-16.02L751.15-16.02Q753.53-16.26 754.99-16.49 756.44-16.71 757.1-17.15 757.76-17.6 757.76-18.47L757.76-18.47 757.76-18.57Q757.76-20.26 756.7-21.18 755.64-22.11 753.71-22.11L753.71-22.11Q751.67-22.11 750.46-21.21 749.25-20.31 748.86-18.96L748.86-18.96 741.86-19.53Q742.4-22.02 743.96-23.84 745.52-25.66 748-26.64 750.48-27.63 753.74-27.63L753.74-27.63Q756.02-27.63 758.1-27.1 760.19-26.56 761.81-25.44 763.44-24.33 764.38-22.58 765.32-20.83 765.32-18.39L765.32-18.39 765.32 0 758.15 0 758.15-3.78 757.93-3.78Q757.28-2.5 756.17-1.54 755.07-0.57 753.53-0.03 751.98 0.51 749.96 0.51ZM752.13-4.71L752.13-4.71Q753.8-4.71 755.07-5.37 756.35-6.04 757.08-7.17 757.81-8.31 757.81-9.75L757.81-9.75 757.81-12.64Q757.45-12.41 756.84-12.22 756.23-12.04 755.46-11.89 754.7-11.74 753.94-11.62 753.17-11.51 752.55-11.42L752.55-11.42Q751.22-11.22 750.23-10.8 749.23-10.37 748.68-9.65 748.13-8.93 748.13-7.87L748.13-7.87Q748.13-6.32 749.26-5.51 750.39-4.71 752.13-4.71ZM771.19-36.36L778.76-36.36 778.76 0 771.19 0 771.19-36.36ZM821.1 0L796.53 0 796.53-36.36 821.03-36.36 821.03-30.02 804.21-30.02 804.21-21.36 819.77-21.36 819.77-15.02 804.21-15.02 804.21-6.34 821.1-6.34 821.1 0ZM825.52-27.27L833.33-27.27 838.34-17.74 843.47-27.27 851.23-27.27 843.33-13.64 851.44 0 843.72 0 838.34-9.43 833.05 0 825.23 0 833.33-13.64 825.52-27.27ZM863.26 10.23L855.7 10.23 855.7-27.27 863.16-27.27 863.16-22.69 863.5-22.69Q863.99-23.79 864.94-24.94 865.89-26.08 867.43-26.86 868.96-27.63 871.25-27.63L871.25-27.63Q874.24-27.63 876.76-26.07 879.28-24.52 880.79-21.4 882.3-18.29 882.3-13.6L882.3-13.6Q882.3-9.04 880.83-5.9 879.37-2.77 876.86-1.16 874.34 0.44 871.24 0.44L871.24 0.44Q869.04 0.44 867.5-0.28 865.96-1.01 864.99-2.12 864.01-3.23 863.5-4.37L863.5-4.37 863.26-4.37 863.26 10.23ZM863.1-13.64L863.1-13.64Q863.1-11.2 863.78-9.39 864.45-7.58 865.73-6.58 867.01-5.58 868.84-5.58L868.84-5.58Q870.69-5.58 871.97-6.6 873.24-7.62 873.91-9.44 874.58-11.26 874.58-13.64L874.58-13.64Q874.58-16 873.92-17.79 873.26-19.58 871.98-20.6 870.7-21.61 868.84-21.61L868.84-21.61Q866.99-21.61 865.72-20.63 864.45-19.66 863.78-17.86 863.1-16.07 863.1-13.64ZM899.75 0.53L899.75 0.53Q895.54 0.53 892.51-1.18 889.49-2.89 887.85-6.05 886.22-9.2 886.22-13.51L886.22-13.51Q886.22-17.72 887.85-20.9 889.49-24.08 892.46-25.85 895.44-27.63 899.45-27.63L899.45-27.63Q902.15-27.63 904.48-26.77 906.82-25.91 908.57-24.18 910.31-22.46 911.29-19.86 912.27-17.26 912.27-13.78L912.27-13.78 912.27-11.7 889.24-11.7 889.24-16.39 905.15-16.39Q905.15-18.02 904.44-19.28 903.73-20.54 902.48-21.26 901.22-21.98 899.57-21.98L899.57-21.98Q897.85-21.98 896.53-21.19 895.2-20.4 894.46-19.08 893.71-17.76 893.7-16.14L893.7-16.14 893.7-11.68Q893.7-9.66 894.45-8.19 895.2-6.71 896.59-5.91 897.97-5.11 899.87-5.11L899.87-5.11Q901.14-5.11 902.18-5.47 903.23-5.82 903.98-6.53 904.72-7.24 905.11-8.27L905.11-8.27 912.11-7.81Q911.58-5.29 909.93-3.42 908.29-1.54 905.71-0.51 903.12 0.53 899.75 0.53ZM924.77 0L917.2 0 917.2-27.27 924.53-27.27 924.53-22.51 924.82-22.51Q925.56-25.05 927.32-26.36 929.08-27.66 931.37-27.66L931.37-27.66Q931.94-27.66 932.6-27.59 933.25-27.52 933.75-27.4L933.75-27.4 933.75-20.69Q933.22-20.85 932.28-20.97 931.34-21.09 930.55-21.09L930.55-21.09Q928.88-21.09 927.58-20.37 926.27-19.66 925.52-18.38 924.77-17.1 924.77-15.43L924.77-15.43 924.77 0ZM935.72-27.27L952.14-27.27 952.14-21.59 935.72-21.59 935.72-27.27ZM939.45-7.39L939.45-33.81 947.01-33.81 947.01-8.38Q947.01-7.33 947.33-6.76 947.65-6.18 948.23-5.95 948.8-5.72 949.57-5.72L949.57-5.72Q950.1-5.72 950.63-5.81 951.17-5.91 951.45-5.97L951.45-5.97 952.64-0.34Q952.07-0.16 951.04 0.08 950.01 0.32 948.54 0.37L948.54 0.37Q945.8 0.48 943.75-0.36 941.7-1.19 940.57-2.95 939.43-4.71 939.45-7.39L939.45-7.39ZM964.62 0L957.06 0 957.06-27.27 964.62-27.27 964.62 0ZM960.86-30.79L960.86-30.79Q959.17-30.79 957.97-31.92 956.77-33.04 956.77-34.62L956.77-34.62Q956.77-36.19 957.97-37.31 959.17-38.44 960.86-38.44L960.86-38.44Q962.54-38.44 963.74-37.31 964.94-36.19 964.94-34.62L964.94-34.62Q964.94-33.04 963.74-31.92 962.54-30.79 960.86-30.79ZM993.35-19.5L993.35-19.5 986.42-19.07Q986.25-19.96 985.66-20.68 985.07-21.4 984.12-21.83 983.17-22.27 981.86-22.27L981.86-22.27Q980.1-22.27 978.9-21.53 977.69-20.79 977.69-19.57L977.69-19.57Q977.69-18.59 978.47-17.92 979.25-17.24 981.15-16.83L981.15-16.83 986.09-15.84Q990.06-15.02 992.02-13.21 993.97-11.4 993.97-8.45L993.97-8.45Q993.97-5.77 992.4-3.75 990.83-1.72 988.1-0.59 985.38 0.53 981.82 0.53L981.82 0.53Q976.41 0.53 973.2-1.73 970-4 969.45-7.9L969.45-7.9 976.89-8.29Q977.23-6.64 978.52-5.78 979.82-4.92 981.84-4.92L981.84-4.92Q983.83-4.92 985.05-5.69 986.26-6.46 986.28-7.69L986.28-7.69Q986.26-8.72 985.41-9.38 984.56-10.05 982.78-10.4L982.78-10.4 978.06-11.35Q974.07-12.14 972.12-14.12 970.18-16.09 970.18-19.14L970.18-19.14Q970.18-21.77 971.61-23.67 973.04-25.57 975.64-26.6 978.24-27.63 981.74-27.63L981.74-27.63Q986.9-27.63 989.88-25.44 992.85-23.26 993.35-19.5ZM1011.17 0.53L1011.17 0.53Q1006.96 0.53 1003.94-1.18 1000.91-2.89 999.28-6.05 997.64-9.2 997.64-13.51L997.64-13.51Q997.64-17.72 999.28-20.9 1000.91-24.08 1003.88-25.85 1006.86-27.63 1010.87-27.63L1010.87-27.63Q1013.57-27.63 1015.9-26.77 1018.24-25.91 1019.99-24.18 1021.74-22.46 1022.71-19.86 1023.69-17.26 1023.69-13.78L1023.69-13.78 1023.69-11.7 1000.66-11.7 1000.66-16.39 1016.57-16.39Q1016.57-18.02 1015.86-19.28 1015.15-20.54 1013.9-21.26 1012.65-21.98 1010.99-21.98L1010.99-21.98Q1009.27-21.98 1007.95-21.19 1006.63-20.4 1005.88-19.08 1005.14-17.76 1005.12-16.14L1005.12-16.14 1005.12-11.68Q1005.12-9.66 1005.87-8.19 1006.63-6.71 1008.01-5.91 1009.4-5.11 1011.3-5.11L1011.3-5.11Q1012.56-5.11 1013.6-5.47 1014.65-5.82 1015.4-6.53 1016.14-7.24 1016.53-8.27L1016.53-8.27 1023.53-7.81Q1023-5.29 1021.36-3.42 1019.71-1.54 1017.13-0.51 1014.55 0.53 1011.17 0.53Z" opacity="1" transform="matrix(1,0,0,1,0,0)" fill="#6b7280" className="slogan-text-1" data-fill-palette-color="secondary" id="text-1"></path></svg></g></svg></g></svg></g></svg></g><g><svg viewBox="0 0 137.32967202689346 101.9959709265751" height="101.9959709265751" width="137.32967202689346"><g><svg xmlns="http://www.w3.org/2000/svg" xmlns:xlink="http://www.w3.org/1999/xlink" version="1.1" x="0" y="0" viewBox="7.5 18.435 85.001 63.131" enable-background="new 0 0 100 100" xml:space="preserve" height="101.9959709265751" width="137.32967202689346" className="icon-icon-0" data-fill-palette-color="accent" id="icon-0"><g fill="#6b7280" data-fill-palette-color="accent"><path d="M89.405 18.435H10.595A3.1 3.1 0 0 0 7.5 21.53V78.471A3.1 3.1 0 0 0 10.595 81.566H89.406A3.1 3.1 0 0 0 92.501 78.471V21.529A3.1 3.1 0 0 0 89.405 18.435M10.595 19.673H89.406A1.86 1.86 0 0 1 91.263 21.529V30.604C91.195 30.594 91.127 30.583 91.056 30.583H8.951C8.878 30.583 8.808 30.594 8.738 30.604V21.528C8.738 20.506 9.571 19.673 10.595 19.673M91.263 77.14A0.207 0.207 0 0 1 91.056 77.346H8.951A0.206 0.206 0 0 1 8.745 77.14V32.027C8.745 31.914 8.838 31.821 8.951 31.821H91.055C91.169 31.821 91.262 31.914 91.262 32.027V77.14zM89.405 80.327H10.595A1.855 1.855 0 0 1 8.747 78.563C8.814 78.573 8.882 78.584 8.951 78.584H91.055C91.123 78.584 91.188 78.573 91.252 78.564A1.854 1.854 0 0 1 89.405 80.327" fill="#6b7280" data-fill-palette-color="accent"></path><path d="M28.178 27.787C29.628 27.787 30.808 26.607 30.808 25.157 30.808 23.706 29.628 22.526 28.178 22.526S25.547 23.706 25.547 25.157 26.728 27.787 28.178 27.787M28.178 23.765A1.394 1.394 0 0 1 28.178 26.551 1.394 1.394 0 0 1 28.178 23.765" fill="#6b7280" data-fill-palette-color="accent"></path><path d="M21.458 27.787A2.633 2.633 0 0 0 24.089 25.157 2.634 2.634 0 0 0 21.458 22.526C20.008 22.526 18.828 23.706 18.828 25.157S20.008 27.787 21.458 27.787M21.458 23.765A1.393 1.393 0 1 1 21.458 26.552 1.393 1.393 0 0 1 21.457 23.765" fill="#6b7280" data-fill-palette-color="accent"></path><path d="M14.738 27.787A2.633 2.633 0 0 0 17.369 25.157 2.634 2.634 0 0 0 14.738 22.526C13.288 22.526 12.108 23.706 12.108 25.157S13.288 27.787 14.738 27.787M14.738 23.765A1.393 1.393 0 1 1 14.738 26.552 1.393 1.393 0 0 1 14.737 23.765" fill="#6b7280" data-fill-palette-color="accent"></path></g><path d="M26.598 65.915C25.974 65.915 25.203 65.486 24.309 64.639 22.704 63.12 22.149 62.268 23.109 61.234L31.899 52.423 23.125 43.641C22.449 42.965 22.555 42.446 22.724 42.071 22.966 41.527 23.538 40.954 24.203 40.29 25.032 39.461 25.745 38.748 26.444 38.748 26.786 38.748 27.123 38.92 27.477 39.274L39.246 51.029C39.557 51.283 39.767 51.688 39.81 52.163 39.858 52.7 39.676 53.315 39.358 53.696L27.53 65.514C27.243 65.787 26.941 65.915 26.598 65.915M23.846 42.57C23.837 42.57 23.873 42.638 24 42.764L33.211 51.985A0.62 0.62 0 0 1 33.211 52.86L24 62.093A0.8 0.8 0 0 0 23.867 62.259C23.879 62.306 23.992 62.636 25.159 63.739 26.138 64.666 26.579 64.677 26.597 64.677V65.296L26.607 64.676 26.606 64.677C26.603 64.677 26.626 64.665 26.667 64.627L38.444 52.86C38.505 52.783 38.595 52.503 38.575 52.271A0.44 0.44 0 0 0 38.413 51.943L26.601 40.148C26.457 40.005 26.386 39.977 26.386 39.977 26.204 40.037 25.5 40.741 25.079 41.161 24.548 41.693 24.002 42.239 23.852 42.574 23.85 42.571 23.848 42.57 23.846 42.57" fill="#6b7280" data-fill-palette-color="accent"></path><path d="M55.834 71.436H40.498C38.904 71.436 38.578 70.202 38.578 68.348S38.904 65.26 40.498 65.26H55.834C57.337 65.26 57.621 66.345 57.621 68.348 57.621 70.396 57.346 71.436 55.834 71.436M40.498 66.497C40.132 66.497 39.815 66.497 39.815 68.348S40.131 70.199 40.498 70.199H55.834C56.188 70.199 56.384 70.199 56.384 68.348S56.165 66.497 55.834 66.497z" fill="#6b7280" data-fill-palette-color="accent"></path></svg></g></svg></g></svg></g></svg></g></svg></g><defs></defs></svg><rect width="395.52" height="74.2265892924062" fill="none" stroke="none" visibility="hidden"></rect></g></svg></g></svg>